<svg version="1.0" xmlns="http://www.w3.org/2000/svg" viewBox="0 0 512 512">
<g transform="translate(0,512) scale(0.1,-0.1)" fill="currentColor" stroke="none">
<path d="M1967 5110 c-92 -17 -182 -49 -232 -85 -27 -19 -59 -41 -70 -49 -11
-8 -150 -51 -310 -96 -304 -85 -382 -114 -427 -157 -47 -45 -35 -108 25 -140
29 -16 76 -19 447 -23 281 -3 421 -9 435 -16 66 -38 262 -55 379 -33 32 6 61
8 64 5 17 -18 -62 -106 -315 -348 -72 -70 -155 -160 -183 -200 -122 -172 -193
-357 -207 -538 -6 -75 -5 -79 20 -104 30 -30 66 -33 97 -8 17 14 24 34 30 96
18 153 74 308 160 437 25 38 136 157 270 289 246 243 280 289 282 381 1 57
-31 121 -74 147 l-33 20 -95 -20 c-176 -37 -357 -7 -442 73 -44 42 -50 81 -17
122 32 41 133 84 232 98 132 19 223 3 357 -63 225 -110 290 -181 290 -313 0
-57 3 -69 25 -90 31 -32 69 -32 101 1 25 24 26 30 22 112 -4 114 -36 182 -125
269 -50 48 -93 77 -195 129 -72 36 -161 75 -197 86 -75 21 -242 31 -314 18z
m-360 -360 l10 -40 -151 1 -151 0 130 39 c72 21 135 39 140 39 6 1 16 -17 22
-39z"/>
<path d="M2466 4233 c-53 -60 -154 -170 -225 -247 -164 -176 -214 -259 -219
-361 -4 -82 11 -126 64 -185 l36 -40 2 -122 c2 -97 6 -135 23 -180 92 -249
326 -431 746 -579 78 -28 209 -84 290 -125 82 -41 158 -74 168 -74 28 0 69 44
69 75 0 14 -10 36 -23 49 -36 35 -298 161 -442 211 -263 92 -481 220 -576 338
-23 28 -56 81 -73 117 -28 60 -31 73 -31 167 l0 102 35 36 c85 88 244 118 408
77 311 -79 711 -401 945 -762 118 -182 243 -436 318 -644 22 -60 38 -110 37
-112 -2 -1 -32 24 -68 57 -95 87 -293 246 -323 260 -55 25 -115 -21 -103 -79
5 -21 40 -54 134 -130 70 -56 156 -129 192 -162 l65 -60 -100 35 c-213 74
-369 113 -695 175 -306 58 -507 119 -710 216 -359 172 -574 411 -655 730 -26
105 -46 134 -92 134 -13 0 -35 -12 -50 -26 -23 -23 -25 -30 -19 -77 4 -29 20
-92 37 -140 121 -363 384 -620 825 -808 52 -22 63 -31 72 -60 140 -446 149
-465 242 -511 l55 -27 22 -88 c12 -48 23 -101 23 -118 0 -16 -44 -281 -97
-587 l-97 -558 -189 0 c-186 0 -188 0 -212 -25 -32 -31 -32 -69 0 -100 l24
-25 483 0 c380 1 487 3 500 14 39 30 40 92 0 122 -10 8 -46 13 -89 14 -40 0
-73 4 -73 10 0 5 43 254 95 553 52 299 95 561 95 581 0 20 -12 84 -26 141
l-26 105 31 35 c61 70 77 158 46 258 l-14 47 27 -6 c106 -23 317 -84 417 -122
66 -24 149 -55 185 -68 168 -61 282 -1 267 141 -14 135 -177 550 -312 795
-192 348 -430 618 -714 809 -97 66 -281 157 -389 192 -113 37 -285 51 -369 30
-66 -17 -149 -58 -190 -94 l-35 -31 -19 23 c-12 14 -19 39 -19 65 0 60 58 143
230 325 211 224 270 296 270 331 0 40 -32 70 -74 70 -31 0 -44 -11 -130 -107z
m306 -2242 c19 -7 32 -35 72 -157 27 -82 51 -155 53 -161 4 -9 -5 -13 -27 -13
-42 0 -65 14 -78 47 -15 37 -92 285 -92 296 0 9 30 4 72 -12z m333 -74 l48
-12 24 -69 c27 -82 29 -128 6 -151 -39 -39 -89 -39 -124 1 -14 16 -89 227 -89
250 0 7 68 -2 135 -19z m-75 -392 c14 -8 37 -14 52 -15 30 0 30 0 64 -143 l17
-76 -99 -571 -99 -570 -67 0 c-38 0 -68 3 -68 8 0 4 45 261 99 571 l99 563
-27 119 c-32 139 -30 148 29 114z"/>
</g>
</svg>
