<?xml version="1.0" encoding="utf-8"?>
<!-- Generator: Adobe Illustrator 26.5.0, SVG Export Plug-In . SVG Version: 6.00 Build 0)  -->
<svg version="1.1" id="Layer_1" xmlns="http://www.w3.org/2000/svg" xmlns:xlink="http://www.w3.org/1999/xlink" x="0px"
	y="0px" viewBox="0 0 444 512" style="enable-background:new 0 0 444 512;" xml:space="preserve">
	<g transform="translate(222 256)">
		<g transform="translate(0,0) scale(1,1)">
			<path fill="currentColor" d="M107-52.5c-3.2,2.7-6.1,5.1-9,7.4c2.4,0,5.4,0,8.3,0c2,11.7-0.3,16.4-10.6,21.2c3.8,0,6.8,0,9.9,0
			c0,11.5-0.8,13.9-11,19.5c3.3,0,6,0,8.5,0c2.5,9.7-0.3,16-9.9,22.3c2.5,0,4.8,0,7,0c2.2,9-1.5,15.6-11.5,20.2c3.4,0,6.2,0,9,0
			c-1,8.6-0.1,12.3-11,18.7c2.7,0.1,4.7,0.2,6.7,0.3c1.2,6.9-3,14.3-10.5,18c2.7,0,4.8,0,7.2,0c-2.2,7.2-3.5,14.6-11.6,17.7
			c1.8,0.2,3.7,0.3,6.1,0.5c-3.7,4.6-2.5,11.6-9.4,14.2c1.2,0.4,2,0.7,3.7,1.2c-2.6,4.7-5.3,9.1-7.4,13.7c-1.4,3-1.6,6.5-3,9.5
			c-1.3,2.9-3.1,5.7-5.2,8.1c-1,1.1-3.6,1.9-5,1.5c-7.6-2.6-15.1-2.2-22.7-0.5c-12.5,2.9-24.3,17.4-24.5,30.1c0,2.1,0.6,4.2,0.9,6.5
			c-2.1,0-4.2,0-6.9,0c0-33.6,0-67.5,0-101.5c-2.8,0-5.1,0-8,0c0,33.8,0,67.6,0,101.7c-2.7,0-4.7,0-7.1,0c2.8-10.8-1.6-19.6-8-27.2
			c-5.1-6.1-12.5-9.7-20.4-10.4c-5.9-0.5-11.9,1.1-17.9,1.4c-1.7,0.1-4.3-0.5-5-1.7c-3.4-5.4-7.6-10.1-8.3-17.2
			c-0.5-4.8-4.5-9.2-7.1-14.1c1.8-0.5,2.6-0.7,4-1.1c-7.5-2.3-5.9-9.6-9.8-14.3c2.6-0.1,4.4-0.2,7.1-0.4
			c-8.2-3.5-11.2-9.8-11.9-17.7c1.7-0.1,3.8-0.2,7.2-0.4c-8.7-3.4-11.3-9.7-11.8-17.6c2.2-0.1,4.4-0.2,7.8-0.3
			c-9-3.7-11.3-10.5-11.8-18.7c3,0,5.7,0,9,0c-11-6.5-11.6-7.6-11.8-20c2.4,0,4.8,0,6.8,0c-2.9-3-6.7-5.7-8.4-9.3
			c-1.7-3.6-1.3-8.2-1.8-12.7c3.1,0,5.9,0,8.6,0c-8.3-4.2-11-11-10.4-19.9c3.2,0,6.3,0,9.4,0c-9.6-3.9-12.3-11-10.1-20.9
			c2.7,0,5.8,0,10.3,0c-2.8-1.6-4.6-2.3-6.1-3.4c-3.4-2.6-6.6-5.4-5.8-10.6c0.4-2.5-0.6-5.1-1-8.2c3.6,0,7.1,0,10.6,0
			c-10.6-4-11.5-12.5-10.5-22c3,0,6.7,0,11,0c-9.6-5.5-13.8-8.8-11.7-22c3.6,0,7.4,0,12.4,0c-9.6-4.9-13.2-11.5-13-21.4
			c0.4-17.7,2-35.1,8.2-51.8c4.1-11,9.7-21.2,18.9-29.2c-4.3-0.7-4.3-0.7-11.4,5.9c-0.8-2.7-1.5-5-2.5-8.7c-2.4,4.9-4.4,9-7.1,14.4
			c-2.3-3.2-4.1-5.8-6.6-9.3c-0.5,2.8-1,5.4-1.3,8c-0.5,3.2,1.6,7.7-3.1,8.9c-4.2,1.1-6.3-2.6-8.2-5.7c-9.1-14.8-4.1-30.7,8.1-40.1
			c10.2-7.8,22.2-11,34.7-11.9c11.9-0.9,23.9-1.7,35.7-0.9c13.8,0.9,27.6,3.2,39.7,10.8c2.6,1.6,4.8,1.9,7.8,0.1
			c10.4-6.2,21.9-9.4,33.9-10.1c11.9-0.7,23.9-1.7,35.7-0.8c16.3,1.3,32.7,3.9,44.9,16.6c11.3,11.8,11.5,26.4,2,39.2
			c-1.2,1.6-4.4,3-6.2,2.6c-1.4-0.3-2.5-3.6-2.9-5.8c-0.7-3.5-0.7-7.1-2.1-10.3c-1.7,2.7-3.4,5.4-5.8,9.1c-2.7-5.6-4.8-9.8-7.3-14.9
			c-1,3.7-1.6,6-2.2,8.1c-3.8-2.4-7.2-4.6-10.7-6.8c-0.4,0.5-0.8,1-1.1,1.4c11.1,10,17.4,22.9,21.6,36.8c5.1,16.8,6.3,34.1,5.3,51.5
			c-0.4,6.7-5.9,10.5-11.8,13.9c4.1,0,7.7,0,11.3,0c2.4,11.9-0.2,16.1-11.1,22.3c4,0,7.6,0,10.8,0c1.1,9.5,0.3,18.1-10.4,22
			c3.4,0,6.8,0,10.7,0C108.5-62,107.9-57.4,107-52.5 M-44.9-219.6c-1.7,1.2-3.4,2.5-5,3.7c-11.8-6.1-18-3-19.5,9.6
			c-1.9,0.4-3.8,1.3-5.6,1.3c-6.9,0-12.3,9.1-10.7,14.9c0.9,3.3,0.5,4.8-2.1,6.7c-7,5-5.2,16.4,3.3,18.6c1,0.3,2.4,1.6,2.4,2.4
			c-0.2,11.3,5.5,15.9,15.6,12.7c1.9,11.1,10.7,12.6,16.4,8.3c2.6-2,4.2-1.5,6.7-0.6c7.3,2.4,14.6,2,21-2.1c4.1-2.5,6-1,8.5,2
			c4.8,5.8,9.8,11.3,15.1,17.3c5.5-6.4,10.4-12.2,15.4-17.9c1.8-2.1,3.7-4.2,7-2c7.1,4.7,14.7,5.3,22.7,2.3c2.2-0.8,3.8-0.9,5.9,0.9
			c1.8,1.5,4.8,1.9,7.3,1.9c6.5,0,8.1-5,9.1-10.2c9.9,3.5,17.6-2.4,16.1-12c-0.1-0.9,1.2-2.5,2.3-2.9c5.3-2.3,8-5.4,6.9-10.9
			c-0.8-3.9-3.8-7.3-6.3-11.7c3-9.7-2-16.1-16.2-19c-0.2-12.2-8.8-15.5-19.5-9.5c-11.5-9.4-18.3-6.6-22.8,4.5c-0.3,0-0.6,0.1-0.9,0
			c-9.8-2.1-16,3.7-14.1,13.3c0.6,2.9-1.2,3.5-3.4,4.2c-4.7,1.7-6.8,5.6-5.6,10.5c0.8,3.2,2.6,6.3,2.8,9.5c0.5,7,1.7,13.7,5.4,19.8
			c0.6,1,0.8,3.2,0.1,4c-3.9,4.6-8.2,8.9-12.4,13.4c-4.2-4.5-8.2-8.5-11.9-12.9c-0.8-0.9-0.8-3-0.4-4.4c1.3-4.2,2.7-8.5,4.4-12.5
			c2.1-4.9-0.5-10.7,3.7-15.4c1.3-1.4,1-5.7-0.2-7.5c-1.9-2.8-5.3-4.5-8.4-6.9c2-4.2,1.4-9.3-2.6-12.2c-3.4-2.5-8.2-3-13.2-4.6
			C-29.2-218.9-35.6-224.8-44.9-219.6 M-25.9-118.6c-2.8,2.5-5.6,5-8.3,7.4c8.4,0,17,0,24.4,0c-3.9-4.5-8.3-9.5-12.7-14.5
			c0.4-0.3,0.7-0.6,1.1-0.9C-22.8-124.2-24.1-121.6-25.9-118.6 M11.2-112c-0.2,0.3-0.4,0.6-0.7,0.8c0.1,0,0.3,0.1,0.4,0.1
			c8.5,0,17,0,26.1,0c-5.8-3.9-8.8-5.4-13.6-15.7C21.5-120.7,13.7-114.3,11.2-112 M71.4-111c3,0,6.1,0,9.1,0
			c-7-3.2-10.7-8.9-13.1-16.1c-2,7.6-6.4,12.7-14.5,16.1C59.8-111,65.1-111,71.4-111 M-66-125.4c-2.4,6.3-6,11.5-14,14.2
			c10.1,0,18.8,0,27.5,0c-6.4-2.5-9.7-7.7-12.5-13.4C-65.2-125.2-65.6-125.6-66-125.4 M18.5-95c-2.6,1.9-5.3,3.8-7.7,5.6
			c8.5,0,17.1,0,24.4,0c-3.6-4.2-7.6-8.8-11.1-13C22.8-100.7,20.9-98.1,18.5-95 M-33.8-90c-0.2,0.3-0.4,0.6-0.6,0.9
			c0.1,0,0.3,0.1,0.4,0.1c8.5,0,17,0,24.5,0c-4.4-4.4-9.1-9.1-13.4-13.4C-23.8-97.5-28.3-93.8-33.8-90 M63-95.6
			c-2.5,2.1-5,4.2-7.2,6.2c8.1,0,16.4,0,23.3,0c-3.8-4-8-8.5-11.9-12.7C66.2-100.4,64.9-98.2,63-95.6 M-76.8-89c7.8,0,15.6,0,22.2,0
			c-3.8-4.3-7.8-8.7-10.8-12.1c-4,3.5-8.6,7.4-13.2,11.4C-78.2-89.5-77.9-89.2-76.8-89 M10.5-45.9c8.7,0.4,17.4,0.8,25.4,1.2
			c-4.3-4.4-8.3-8.6-11.6-12C20.2-53.4,15.7-49.7,10.5-45.9 M-30.6-48c-1.4,0.8-2.8,1.7-4.5,2.7c9.2,0,17.9,0,26.6,0
			c-2.8-1.9-5.5-3.5-7.8-5.6c-2.3-2.1-4-4.8-5.5-6.6C-24.5-54.4-27.3-51.5-30.6-48 M27.5-75c-1.1-1.9-2.2-3.7-2.7-4.6
			c-4.3,4.2-8.9,8.7-12.5,12.2c6.9,0,15.6,0,23.4,0C33.3-69.6,30.6-72,27.5-75 M-21-77.8c-0.4-1-0.8-2.1-1.5-4
			c-1.8,7.8-6.5,11.6-13,14.5c9.7,0,18.3,0,25.6,0C-13-70.2-16.8-73.6-21-77.8 M-17.6-24c3,0,6.1,0,8.4,0
			c-4.3-3.9-8.7-7.9-12.6-11.4c-3.5,3.4-7.9,7.6-11.9,11.4C-29.2-24-23.9-24-17.6-24 M20-31.5c-3.1,2.5-6.3,5-9.1,7.3
			c8.3,0,17,0,24.5,0C31.5-28,27.2-32,23.1-36C22.6-35.2,21.6-33.6,20-31.5 M-70.5-73c-2.3,1.9-4.6,3.8-6.8,5.6c7.8,0,15.8,0,22.3,0
			c-3.5-3.9-7.4-8.3-11-12.4C-67-78.1-68.5-75.8-70.5-73 M78.8-68c-4.1-3.9-8.1-7.9-11.4-11c-3.3,3.5-7.3,7.8-11.2,12
			c3.4,0,7.5,0.1,11.6,0C71.7-67.2,75.6-67.6,78.8-68 M-60-50.5c-1.9-2.7-3.9-5.4-4.9-6.8c-3.8,4-7.8,8.3-11.2,11.9
			c7,0,15.4,0,23.7,0C-54.9-47-57.2-48.5-60-50.5 M64-32.5c-3,2.9-6.1,5.7-8.9,8.4c7.7,0,16,0,23.1,0C74.4-28,70-32.5,66-36.6
			C65.8-36,65.2-34.5,64-32.5 M72.5-50c-1.8-2.8-3.6-5.6-4.7-7.3c-3.8,3.8-8.3,8.2-12.1,12c7.2,0,15.5,0,24.3,0
			C77.4-46.9,75.2-48.2,72.5-50 M-72.2-24c6.6,0,13.2,0,18.8,0c-3.9-4.2-8-8.5-11.1-11.9c-3.5,3.6-7.8,8-11.7,11.9
			C-76-24-74.6-24-72.2-24 M16.7-4c6,0,11.9,0,16.9,0c-3.6-3.9-7.2-7.9-10.1-11.1c-3.6,3.3-8,7.4-11.9,11.1C12.3-4,14-4,16.7-4
			 M-12.8-4c1.5-0.1,2.9-0.1,2.9-0.1c-3.8-3.6-8.1-7.7-11.4-10.9c-3.2,3.3-6.9,7.3-10.5,11C-26.2-4-20-4-12.8-4 M-28.2,38
			c6.9,0,13.8,0,19.6,0c-3.9-3.5-8.2-7.3-11.6-10.4c-3.6,3.3-7.7,7.1-11.3,10.4C-31.3,38-30.2,38-28.2,38 M25,30.5
			c-0.9-1.4-1.7-2.8-2.1-3.6c-4.2,3.8-8.5,7.6-12,10.8c7,0,15.3,0,22.6,0C31.1,35.7,28.3,33.4,25,30.5 M-57.4-8
			c-2-2.6-3.9-5.2-5.4-7.2c-3.6,3.7-7.5,7.6-10.8,10.9c6.7,0,14.4,0,22.3,0C-53.2-5.7-54.9-6.8-57.4-8 M69-10.4
			c-1.3-1.9-2.6-3.8-3.3-4.9c-4,3.9-7.9,7.7-11.1,10.9c6.7,0,14.3,0,22.2,0C74-6.2,71.5-7.9,69-10.4 M-31.6,17.1
			c7.4,0.4,14.7,0.8,19.9,1c-3.1-3-6.8-6.7-9.9-9.8C-23.6,10.2-27.2,13.6-31.6,17.1 M11.4,17.1c7.4,0.4,14.7,0.8,21.6,1.1
			c-3.9-4.2-7.4-8-10.1-10.8C19.6,10.5,15.9,13.7,11.4,17.1 M-67.1,38c6.5,0,13.1,0,18.5,0c-3.6-3.3-7.7-7-11.3-10.3
			c-3.1,3-7.2,6.7-10.9,10.3C-70.3,38-69.2,38-67.1,38 M59.5,30c-3.2,2.8-6.4,5.5-8.9,7.7c7,0,14.9,0,21.9,0
			C68.9,34.4,65,30.6,61.2,27C61,27.3,60.5,28.4,59.5,30 M63.5,5.3c-3.4,4.4-6.7,8.8-9.6,12.5c5.9,0,13.2,0,21,0
			C70.1,14.5,65.2,11.8,63.5,5.3 M-58,11.4c-1.3-2-2.5-3.9-3.1-4.8c-3.3,3.5-7.1,7.6-10.4,11.1c6.4,0,13.7,0,20.9,0
			C-53,15.8-55.3,13.9-58,11.4 M-17.6,57c3,0,6.1,0,9.1,0c-0.5,0.3-1,0.7-1.5,1c-3.7-3.7-7.4-7.4-10.2-10.3c-2,2.1-5.4,5.8-8.6,9.2
			C-25.8,57-22.2,57-17.6,57 M27.6,54.1c-2.3-2.7-4.5-5.4-6.8-8.2c0.6,0.3,1.2,0.6,1.9,0.9c-3.6,3.7-7.2,7.5-9.6,9.9
			c4.4,0,11.3,0,19.3,0C30.5,55.8,29.3,55.2,27.6,54.1 M-59,49.2c-2.7,2.6-5.5,5.1-8.1,7.6c6.7,0,13.6,0,19.4,0
			c-3.2-3.3-6.9-7-10.3-10.5C-58.1,46.5-58.5,47.5-59,49.2 M58,48.4c-2.8,2.9-5.5,5.8-8,8.3c6.2,0,12.9,0,18.5,0
			c-3-3.3-6.4-6.9-9.6-10.4C59.1,46.1,58.6,46.9,58,48.4 M20,83.6c-0.1-0.4-241.3-0.9-0.4-1.3c-0.1,0.1-0.3,0.2-0.4,0.3
			c-3.3,3.6-6.6,7.3-9.2,10.2c5.5,0,12.5,0,18.4,0C25.9,90.2,23,87.3,20,83.6 M-21.6,89c-2,1.2-4,2.4-6,3.7c7.1,0,14,0,19.9,0
			c-3.1-2.8-6.7-6-10.1-9C-18.7,85.1-19.9,86.8-21.6,89 M17.6,75c4,0,8,0,11.5,0c-3.2-3.5-6.2-6.8-7.8-8.5c-2.8,2.9-6.1,6.2-9.4,9.5
			c-0.5-0.3-1-0.7-1.4-1C12.6,75,14.6,75,17.6,75 M-19,64.9c-2.7,3.5-5.3,6.9-7.6,9.9c5.5,0,11.8,0,17,0
			C-12.4,71.5-15.5,67.9-19,64.9 M-54.5,87c-2.3,1.9-4.6,3.8-6.9,5.8c6.6,0,13.2,0,19,0c-2.9-2.7-6.3-5.8-9.8-9
			C-52.6,84.3-53.3,85.4-54.5,87 M54.5,93c3,0,6,0,8.9,0c-3.5-3.2-6.8-6.3-9.4-8.7c-3.1,2.8-6.5,5.9-9.6,8.7
			C46.9,93,50.2,93,54.5,93 M-56.4,75c3.7,0,7.3,0,11,0c-0.6,0.4-1.1,0.7-1.7,1.1c-3.1-3-6.2-6-9.3-8.9c0.7-0.5,1.5-1,2.2-1.5
			c-3.3,3.1-6.7,6.2-10.1,9.4C-62.1,75-59.8,75-56.4,75 M51.9,75c4.9,0,9.8,0,14.7,0c-0.6,0.3-1.3,0.7-1.9,1
			c-2.7-3.7-5.3-7.4-8-11.1c0.6,0.8,1.1,1.7,1.7,2.5c-3.1,2.9-6.3,5.9-9.4,8.8c-0.5-0.4-0.9-0.8-1.4-1.3C48.7,75,49.8,75,51.9,75
			 M-13,103.5c-1.2-1.7-2.4-3.4-3.7-5.1c0.6,0.6,1.2,1.3,1.8,1.9c-3,3-6.1,6-9.1,9.1c-0.5-0.5-1-1.1-1.5-1.6c6.3,0,12.6,0,19.1,0
			C-8.5,106.4-10.5,105.2-13,103.5 M26.8,107c-3-2.7-6-5.3-8.3-7.4c-2.9,2.6-6.3,5.6-9.8,8.8C14.9,108,21.2,107.6,26.8,107
			 M60.6,107.2c-3.3-2.6-6.6-5.2-9.8-7.8c1,0.4,2,0.8,3.1,1.2c-3.3,2.9-6.6,5.8-8.5,7.4C48.5,107.9,54.5,107.9,60.6,107.2
			 M-51,101.3c-2.5,2.2-4.9,4.3-7.1,6.3c5.7,0,11.7,0,17.7,0c-0.6,0.5-1.2,0.9-1.8,1.4c-3-3-6-5.9-9-8.9c0.6-0.6,1.2-1.2,1.8-1.9
			C-50,99-50.5,99.8-51,101.3 M-7.6,122.9c-2.8-2.4-5.5-4.9-8.3-7.3c0.9,0.6,1.7,1.2,2.6,1.9c-2.7,2.2-5.4,4.3-6.8,5.5
			C-17.7,123-13.1,123-7.6,122.9 M17,115.7c-2.1,2.8-4.1,5.6-6.2,8.5c-0.4-0.5-0.8-0.9-1.2-1.4c5,0,9.9,0,14,0
			C21.7,120.4,19.7,117.8,17,115.7 M51,119.5c-1-1.2-2-2.4-2.8-3.4c-2.3,2.2-4.5,4.3-6.8,6.5c4.5,0,8.9,0,14.1,0
			C53.7,121.4,52.6,120.7,51,119.5 M-44,118.4c-0.6-0.9-1.2-1.7-1.7-2.4c-2.4,2.3-4.6,4.4-6.9,6.5c4.5,0,8.9,0,13.7,0
			C-40.8,121.1-42.1,120.1-44,118.4 M-8.9,134.6c-1.8-1.5-3.5-2.9-5.3-4.4c-2,1.8-4.1,3.6-6.2,5.6c4.3,0,8.6,0,12.9,0
			c-0.1-0.2-0.1-0.5-0.2-0.7C-7.8,135-8.1,135-8.9,134.6 M18.2,136c1.5-0.1,2.9-0.1,4.2-0.2c-2.3-2.1-4.4-3.9-6.2-5.5
			c-2.3,1.8-4.5,3.6-7,5.7C12.1,136,14.7,136,18.2,136 M-39,136c0.9,0,1.7,0,2.7,0c-2.4-2.1-4.4-3.9-6.4-5.6
			c-1.9,1.7-3.8,3.5-6.2,5.6C-45.6,136-42.8,136-39,136 M46.2,136c1.5-0.1,3-0.1,4.4-0.2c-2.3-2.1-4.2-3.9-6-5.5
			c-2.2,2-4.1,3.8-6.3,5.7C40.8,136,43.1,136,46.2,136z M-30.2,208.4c-9.5-6.2-19.8-10.3-31.2-10.3c-39.5-0.2-79-0.1-118.5-0.1
			c-3.3,0-6.8,0.2-7.1-4.6c-0.3-4.1,1.7-5.5,5.7-5.5c25.8,0.1,51.6,0,77.5,0c13.3,0,26.7-0.2,40,0c20,0.3,37.1,8.1,51.7,21.4
			c4.8,4.4,8.9,9.5,13.3,14.5c2.9-3.4,5.8-7,8.9-10.4c11.5-12.7,26.1-19.9,42.4-24.1c3.3-0.9,6.8-1.2,10.2-1.2
			c40-0.1,80-0.1,120,0.1c2.1,0,5.1,1.1,6.1,2.7c1.9,2.9-0.5,6.6-4.1,7.1c-1.3,0.2-2.7,0-4,0c-36.8,0-73.6,0.3-110.5-0.1
			c-13.6-0.1-25.9,3.1-37.9,10.5c-1.1,0.8-1.7,1.1-2.4,1.4c0.1,0.3,0.2,0.6,0.3,0.8c1-0.5,1.9-1,2.9-1.5c12.5-5.6,25.7-6.3,39.2-6.2
			c30.2,0.2,60.3,0,90.5,0.1c2.5,0,5.3,0.6,7.3,1.9c1,0.7,1.3,4.1,0.5,5.4c-0.9,1.4-3.4,2.5-5.2,2.6c-23.5,0.2-47,0.1-70.5,0.1
			c-9.8,0-19.7,0.5-29.5-0.1c-12.3-0.7-23.4,2.5-34.2,9.4c-1.3,1-2.2,1.5-3,2c0.2,0.3,0.4,0.6,0.5,0.9c1.1-0.7,2.2-1.4,3.3-2.1
			c8.5-3.3,17.2-4.2,26.3-4.2c29.5,0.2,58.9,0.1,88.4,0.2c1.9,0,4.5,0.7,5.5,2.1c1,1.2,0.8,3.9,0.1,5.5c-0.4,0.9-2.8,1.3-4.3,1.3
			c-29.3,0.1-58.6,0-87.9,0.1c-10.5,0-20.6,1.7-30,8.3c-0.6,0.8-0.7,1.1-0.9,1.5c0.6-0.2,1.1-0.5,1.7-0.7c6-3.1,12.5-3.2,19-3.1
			c26,0.1,52,0.1,77.9,0c3.7,0,7.1-0.1,7,5.2c-0.1,4.9-3.3,4.9-6.8,4.9c-27.6,0-55.3,0.1-82.9-0.2c-5.5-0.1-10,1.8-14,4.6
			c-5.7,4-12,6.1-18.5,6.3c-15.9,0.6-32.1,2-46.3-8.4c-2.5-1.8-6.4-2.3-9.7-2.3c-27.8-0.2-55.6-0.1-83.4-0.1c-3.7,0-6.6-0.3-6.5-5.1
			c0-4.9,3.2-4.9,6.7-4.9c28.1,0,56.3-0.1,84.4,0.2c4,0,8,1.9,12.5,3.2c1,0.4,1.6,0.4,2.1,0.4c-0.3-0.4-0.6-0.9-0.9-1.3
			c-5.8-3.9-11.8-7.3-19-7.4c-32.6-0.4-65.1-0.7-97.7-1.1c-2.7,0-6.3,1.4-6.2-3.8c0.1-4.8,2.8-5.2,6.5-5.2
			c32.3,0.1,64.6-0.2,96.9,0.2c5.6,0.1,11.2,2.5,17.3,4.2c1.7,0.8,2.8,1.2,3.9,1.6c0.1-0.2,0.2-0.5,0.3-0.7c-1-0.6-2.1-1.2-3.1-1.8
			c-8.5-5.5-17.5-9.5-27.9-9.5c-35.2,0.1-70.3,0-105.5,0.1c-3.4,0-6.4-0.2-6.4-4.8c0-2.4,0.2-4.3,3.3-4.4c1.9,0,3.8-0.9,5.7-0.9
			c33-0.1,66,0,99,0c10.2,0,20,1.7,29.8,6.4c1.4,0.6,2.3,0.7,3.2,0.9c0.1-0.2,0.1-0.4,0.2-0.7C-28.7,209.2-29.5,208.8-30.2,208.4
			 M26.1,212.4c1.3-0.2,2.7-0.4,4-0.7c-0.1-0.4-0.2-0.8-0.3-1.2C28.8,211,27.7,211.4,26.1,212.4 M-26.8,210.8
			c-0.3-0.1-0.6-0.1-0.9-0.1c-0.1,0-0.2,0.2-0.3,0.4c1.1,0.7,2.2,1.5,3.4,2.2c0.2-0.3,0.3-0.6,0.5-0.8
			C-24.7,211.9-25.4,211.5-26.8,210.8z M-161.4,113.9c-0.7,1.9-1.5,3.6-1.5,5.3c-0.1,17.3-0.1,34.7-0.1,52c0,3,0,6.1-3.9,6.8
			c-4.2,0.7-6.1-1.1-6.1-5.4c0-17.5-0.1-35,0-52.5c0-3-0.6-5.2-2.7-7.5c-1.6-1.7-2.1-4.5-2.9-6.6c-3.3,3.9-8.8,5.3-12.7,3
			c-4.5-2.7-6.4-7.5-4.7-12.5c-5.4,0.2-11.7,3.2-15-3.8c-2.6-5.4-0.9-10.1,3.8-13.8c-2.5-0.9-5.2-1.3-7-2.7
			c-1.7-1.4-3.4-3.8-3.7-5.9c-0.8-7.7,1-9.7,10.2-12.3c-6.4-1.2-11.6-2.4-11.4-9.5c0.2-5.5,0.5-6.4,5.7-9.8
			c-7.9-5.5-8.2-13.3-1.8-17.7c-1.4-3.7-3.4-6.9-3.7-10.4c-0.3-2.7,1.5-5.6,2.5-8.9c-4.9-4.2-3.5-10.9,0.2-15.8
			c-4.5-6.3-4.3-11.4,0.7-16.3c-4.4-3.3-4.3-7.9-3.1-12.5c0.9-3.6,3.7-5,9.5-5.3c0-2.7,0-5.5,0-8.3c0-16.3,0.3-32.7-0.1-49
			c-0.2-8.7-1.3-17.4-7-24.7c10.1-3.9,20.4,1.6,23.1,12.3c0.7,3,1,6.1,1,9.2c0.1,57.5,0,115,0.1,172.5c0,14.2,9.4,24.5,23.3,24.9
			c11.7,0.4,23.6-7.2,23.6-22.3c0.2-57.5,0-115,0.2-172.5c0-5,1.4-10.2,3-15.1c2.5-7.5,11.7-13.4,21.2-9.3
			c-6.8,10.6-6.5,22.5-6.4,34.5c0.2,15.8,0,31.6,0,45.5c4.1,3.3,8.2,5.1,9.5,8.1c1.8,4,0.8,8.8-3.5,11.8c5.3,5.7,5.6,10.1,1,16.6
			c4.5,6.4,4.3,10.8-0.9,16.5c5.8,6.2,5.4,12.6-1.5,17.5c4.5,2.1,6.3,5.9,5.2,10.4c-0.8,3-2.9,5.7-4.5,8.6c4,2.8,6,7.1,4.6,12
			c-1.4,4.8-5.3,6.2-10.3,6.5c6.9,2.3,11.2,6.5,9.1,13.8c-1.3,4.5-5,7.2-10.8,6.5c4.3,4.7,7.4,9.5,3.3,15.3c-2.9,4.2-7.3,5-14.2,2.7
			c0.1,5,0.5,10.3-4.8,13c-4.9,2.5-9,0.4-12.7-2.7C-158.7,108.7-159.9,111.2-161.4,113.9z M218.3-13.3c4.2,5.9,3.8,10.5,0,14.6
			c1,3.8,2.7,6.9,2.5,10c-0.2,3.1-2.4,6.1-3.7,9.3c5.9,3.5,6.4,14.3-2,18c5.8,2.2,6.9,6.9,5.9,12.1c-1,5.2-5.2,6.6-10.5,7.1
			c9,1.3,11,7.3,9.3,14.1c-1.1,4.3-5.4,6.7-11.5,6.1c5.9,4.6,7.7,9.8,4.5,15.3c-3.4,5.8-9.3,3.7-14.5,3c1.5,5.8-0.5,10.3-5.7,12.9
			c-4.1,2-8.8,0.6-11.6-3c-1.5,2.5-3.3,5.2-4.7,8.1c-0.7,1.5-1.2,3.3-1.2,5c-0.1,16.7,0,33.3-0.1,50c0,3.6,1.8,8.8-4.8,8.7
			c-6.7-0.1-5-5.3-5.1-9.1c-0.2-12.5-0.2-25,0-37.5c0.1-8.8,0.8-17.7-6.1-24.8c-3.2,2.6-7.3,4.8-12.2,2.2c-5.1-2.6-5.2-7.5-4.8-13
			c-6,1.7-11.7,2.5-15-3.9c-2.7-5.4-0.3-9.7,3.8-13.4c-2.5-0.9-5.3-1.2-7-2.6c-1.8-1.5-3.3-4.2-3.6-6.5c-0.8-6.1,1.5-8.7,9.8-11.8
			c-5.6-0.9-10.4-1.8-11-8c-0.4-5,1.2-8.8,5.9-11.2c-7.6-3.1-8.1-15-1.5-17.8c-1.4-3-3.8-5.9-4-9c-0.3-3,1.6-6.2,2.7-10.1
			c-3.9-4.4-4.2-7-1-13.8c0.4-0.9,0.5-2.4,0-3.3c-3.3-6-2.9-9.8,2-15.1c-4.3-3-5.1-7.6-3.6-11.8c1.3-3.7,4.7-6.5,9.6-5.7
			c0-21.2,0.4-42-0.3-62.8c-0.2-6.6-3.5-13.2-5.4-19.8c12.6-3.1,22.7,4.9,22.7,19c0,57.7-0.1,115.3,0.1,173c0,13,4.7,24,20.5,26.8
			c12.8,2.3,24.4-6.9,26.3-17.3c0.9-4.8,1-9.8,1.1-14.7c0.1-55.8,0-111.6,0-167.5c0-10.1,5.7-18.1,15.2-20.3
			c2.7-0.6,5.7,0.4,9.2,0.7c-7.5,10.5-7.6,22.2-7.5,33.9c0.2,16.1,0,32.3,0,48.9c4.7-0.5,8.6,1.1,9.7,5.5c1,4.2,1.2,8.8-3.2,11.8
			C222.2-25.8,222.4-21,218.3-13.3z M166-62.8c1.6-4.4,3.3-8.3,5.1-12.6c-6.5-6.7-8.7-17.9-4-24.5c2.7-3.7,3.5-6.3,2.2-11
			c-2.1-7.3,3-15.6,11.1-19c4.9-2,10.6-2.2,16-3c0.8-0.1,1.8,0.9,3.4,1.8c-9.4,7.7-9.9,17.8-9.9,28.3C190.1-47.2,190,8.5,190,64.1
			c0,9.1-4.5,16.6-12,19.4c-8.7,3.2-17.9,1.2-23.5-5.5c-3.6-4.4-4.4-9.6-4.4-15c0-56.5-0.1-113,0.1-169.4c0-9.4-1.8-17.8-9.2-24.1
			c5.9-6.6,20.6-3.6,29.9,6.1c-4.1,5-6.7,10.3-3.2,16.9c0.4,0.8-0.2,2.7-0.9,3.3c-7.8,6.4-7.5,15.5-1.1,24.4
			c0.9,1.3,1.8,2.7,2.6,3.9c-10.1,10.5-7,25.1,0.8,27.5C168-52.9,167-57.6,166-62.8 M167.9-18.7c0.2,1,0.3,2,0.5,3
			c0.5-0.2,1-0.3,1.5-0.5c-0.6-1.3-1.2-2.6-1.9-4.8c-2.8-8.2-3.5-16.2,2.2-24.2C161.2-42.2,160.3-25.5,167.9-18.7 M167,47.7
			c1.1,6.4,0,13.2,2.3,19.4c0.8-0.1,1.7-0.1,2.5-0.2c0-3.1,0.3-6.3-0.1-9.3c-1.9-14.2-7.9-28.1-3.5-42.9
			C160.5,25.1,165.3,36,167,47.7 M167,9.6c0.9,1.6,1.8,3.2,2.7,4.7c0.5-0.1,1-0.3,1.5-0.4c-0.3-1.4-0.2-3-0.9-4
			c-4.1-6.3-7-12.6-3.7-20.2c0.7-1.5,0.9-3.2,1.4-5.5C161.7-9.8,160.3,1.8,167,9.6z M-188-35c0-24.5,0-48.5,0-72.5
			c0-9.2-2.8-17.2-9.5-23.6c7.1-4.7,15.8-3.5,23.7,0.9c1.7,0.9,3.3,2.2,4.5,3.6c0.7,0.9,0.9,2.8,0.4,3.7c-4,7.6-4.2,9.2-1.2,16.8
			c-8.6,7.2-11.3,16.3,0.4,29.1c-1.5-4.4-3.5-7.7-3.6-11.1c-0.1-4.1,0.7-8.6,2.5-12.3c1.5-3.1,3.1-5,2.1-9.2
			c-2.5-9.8,4-18.9,15-22.5c4.9-1.6,9.8-2,15.1,0.5c-8.1,7.3-10.3,16.7-10.3,26.7c-0.1,56.8-0.1,113.7,0,170.5
			c0,12-7.3,17.7-16.7,19.1c-9,1.3-18-3-21.4-13.1c-0.7-2.1-1-4.4-1-6.7C-188,31.8-188-1.3-188-35 M-168.3-45.9
			c-0.4,0.4-0.8,0.8-1.2,1.2c0,0,0.3,0.4,0.5,0.6c0.5-0.5,0.9-1,1.8-2.2c-0.2-0.5-0.3-1.1-0.5-1.6c-0.2,0.1-0.5,0.2-0.7,0.3
			C-168.1-46.9-167.8-46.2-168.3-45.9 M-170.3-17.8c-0.1,0.7-0.2,1.4-0.9,2.5c-1.6,4.1-4.1,8.1-4.7,12.3c-0.8,6.1,2.6,11.2,5.5,14.4
			c-1.4,5.2-3.7,9.3-3.5,13.3c0.4,10.7,1.7,21.4,2.9,32.1c0.4,3.4,1.2,6.7,1.8,10c1.9-1.3,3.2-2.7,3-4c-1-7-2.5-14-3.4-21
			c-1.4-10.3-4.7-21,3.5-29.8c-1.7-2.4-3.5-4.4-4.7-6.6c-3.9-6.9-2.2-13.7,1.6-20.6c-0.2-1.3-0.4-2.6-0.7-4.7
			c-2.6-7.7-3.2-15.5,0.4-23.9C-177.8-38.2-177.9-28.4-170.3-17.8 M-170.8-75.7c-4.1,5.7-7.6,11.5-5.2,19.1c1.2,3.8,3.8,7.1,7.4,7.7
			c-3.7-6.8-6.4-13.6-1.3-20.7c0.8-1.2,2.1-2.2,2.6-3.5c0.3-1-0.3-2.3-0.7-3.4C-168.2-76.7-169.5-76.4-170.8-75.7z M-23.4,176.8
			c-2.4-3.2-4.4-6.2-6.2-9c-3.4,9.9-4.1,10.5-15,10.2c-5.3-0.1-7.6-2.4-9.7-10c-0.6,0.7-1.2,1.2-1.6,1.8c-3.7,7.4-7.2,9.4-15.4,8.1
			c-3-0.5-4.8-1.8-4.8-5.5c0-16.2,13.6-29.2,29.3-29.5c8.3-0.2,15.9,1.2,22.8,6.3c6.3,4.7,9.1,11,11,18c0.5,2,1.1,4.2,0.7,6.1
			C-13.2,177.7-16.9,178.7-23.4,176.8z M17.2,177c-5.9-4.6-2.4-10-0.8-14.3c4.1-11.6,12.9-18.3,25.1-19.7
			c13.7-1.5,25.5,2.5,32.7,14.9c2.5,4.4,2.9,10.1,3.7,15.3c0.2,1.3-1.5,3.6-2.9,4.2c-6.3,2.8-13.6-0.2-16.5-6.5
			c-0.5-1-1.1-1.9-1.8-3C53.8,176.6,52,178,43.8,178c-8.1,0-9.2-1-12.2-10.7C25.8,178.1,24.1,179.3,17.2,177z M-150.8,177
			c-6-2-8.5-6-8.2-11.9c0.4-7.7-0.4-15.7,1.2-23.1c4.2-20.4,25.7-26.7,39.5-13.3c-3.1,1.2-6.6,1.8-9.2,3.6
			c-5.8,3.9-7.2,10.2-7.4,16.7c-0.2,5.7-0.2,11.3,0,17C-134.6,173.8-144.7,180.2-150.8,177z M149,178c-11.2-2.9-12.3-8-12.1-16.2
			c0.1-6.1-0.2-12.2-1-18.2c-1.2-8.6-4.5-11.7-13.1-13.8c-0.9-0.2-1.7-0.8-2.4-1.2c6.4-6.3,14.1-8,22.7-6
			c10.5,2.4,17.3,15,17.8,24.1c0.3,5-0.1,10,0.1,15C161.4,171.1,160.6,175.2,149,178z M-201,165.7c-0.3-7.4-0.5-14.3-1-21.1
			c-0.6-7.9-4.8-12.8-12.4-14.6c-1.2-0.3-2.3-0.8-3.6-1.4c7.4-6.4,15.7-9.2,24.5-5.3c10.5,4.6,15.7,13.6,16.4,25
			c0.4,5.8,0.1,11.6,0,17.5c-0.1,6.4-5.9,12.3-12,12.2C-195.8,178-200.6,173.2-201,165.7z M182.7,135.8c5.6-12.2,21.4-20.4,37.2-7.3
			c-0.7,0.4-1.2,0.8-1.8,1c-11.1,4-15,9.4-15.1,21.5c0,5,0,10,0,15c0,8.6-5.4,11.1-11.8,12c-5.3,0.7-12-4.9-12.1-10.4
			c-0.2-8.4,0.4-16.8,1-25.2C180.2,140.2,181.6,138.1,182.7,135.8z M166-161.9c4.9,14-3.2,23.6-14.1,22.9
			c-8.2-0.6-13.4-6.5-13.9-16.7c-0.1-1,0-2,0-3c0-9-3.8-12.9-12.9-13.3c-0.6,0-1.2-0.1-2.8-0.3c5.1-6.1,11.3-9.1,18-8.5
			C151.4-179.8,160.8-174.7,166-161.9z M191.3-179c10.9-3.9,19.7-1.7,26.3,6.8c-1.8,0.2-3.6,0.1-5.3,0.5c-7.5,2-10.6,6.3-10.3,15.3
			c0.3,6.4-1.2,11.7-6.8,15.3c-4.9,3.1-12.1,2.8-16.5-0.6c-4.7-3.6-6.9-10.4-5.5-16.3C175.7-167.9,182.1-174.5,191.3-179z
			 M-188.5-178.8c8.5,4,14.3,9.9,16.9,18.7c2.3,7.8-0.4,15.3-6.5,19.3c-5.7,3.7-15.2,1.7-18.4-3.3c-1.7-2.7-2.7-6.1-3.3-9.3
			c-0.6-2.9,0.2-6.1-0.4-8.9c-1.5-7.1-4.5-8.9-14.5-9.8C-211.6-179.6-201.1-182.3-188.5-178.8z M-121.1-172.6
			c-11.1,1-15.3,4.2-14.9,17.7c0.3,10.2-6.1,16.3-16,16c-5.6-0.2-12.1-5.9-13-11.4c-2.2-13.2,8.9-27.6,22.3-29.7
			C-134.1-181.4-126.8-180-121.1-172.6z M-179-182.8c3-8.6,6.6-10.7,14.7-9.2c3.9,0.7,7.4,5.7,7.3,10.3c-0.1,5-4.4,10.1-8.9,10.7
			C-173-170-178.7-174.4-179-182.8z M162.8-173.7c-4-5.5-3.9-11.7,0.1-15.7c3.1-3.1,10.4-3.7,14-1.3c4,2.7,5.3,8.3,3.3,13.1
			C177.1-170.6,170.5-169,162.8-173.7z M16.2-161.5c-4.1-13.5-2.6-26.2,5-37.4c7.1-10.5,20.2-18.6,32.5-13.7
			c4.4,1.8,7.5,6.8,11.3,10.4c1.2,1.2,2.4,3,3.8,3.2c17.5,3.3,21,22.4,12.7,35c-9.6,14.6-37.7,24.4-55,13.7
			C22.4-152.9,19.7-157.5,16.2-161.5 M29.1-156.4c10.4,6.4,19.7,2.9,28.8-3.1c3.5-2.3,6.8-10,5.9-13.2c-1.9-6.6-5.5-9.3-11.5-9.7
			c-2.7-7.5-9.8-12-18.9-5.4C22.4-179.9,20.7-163.5,29.1-156.4z M-25.8-149.7c-16.9,7.4-31.7,2.7-45.9-6.5c-8-5.2-11.2-13.1-12.2-22
			c-0.9-8.9,6.9-18.4,16.1-20.8c1.7-0.4,3.9-1.4,4.6-2.8c9.6-17.4,25.1-13.8,36.6-5.1c13.4,10.3,17.6,29.7,12.5,44.5
			C-16-156.8-19.6-152.2-25.8-149.7 M-22.2-174.8c-0.9-2-1.5-4.2-2.8-6c-3.6-5.1-7.9-9.9-14.6-10.1c-5.7-0.2-8.8,4-10.8,8.8
			c-7-0.8-13.5,7.7-10.5,15.6c3.6,9.6,19.2,15.1,26.3,13.3c5.4-1.4,10.6-3.8,12.1-9.9C-21.7-166.6-22.2-170.3-22.2-174.8z
			 M29.2-159.4c-3.5-5.2-4.6-10.4-1.6-15.7c2.5-4.5,6.6-6.9,11.9-6.9c5.2,0,10.7,4.1,12.5,9.3c1.9,5.6,0,11.3-4.8,15
			c-4.5,3.4-10.1,3.6-14.9,0.5C31.4-157.8,30.4-158.4,29.2-159.4z M-51-168.1c1.2-12.4,13.8-17.4,21.5-11.2
			c5.9,4.8,7.8,13.1,2.3,19.4c-4.8,5.6-11.5,7.1-18.4,1.5C-48.1-160.5-49.2-164.5-51-168.1z" />
		</g>
	</g>
</svg>