<svg viewBox="0 0 444 512"><g transform="translate(222 256)" transform-origin="111 0"><g transform="translate(0,0) scale(1,1)"><path d="M329.019165,203.478546 C325.824371,206.177185 322.878082,208.561523 320.054993,210.846130 C322.485321,210.846130 325.483612,210.846130 328.404572,210.846130 C330.378418,222.551285 328.110321,227.221970 317.790314,232.092438 C321.562134,232.092438 324.633606,232.092438 327.696625,232.092438 C327.663849,243.593307 326.921295,245.950607 316.665771,251.614014 C320.008301,251.614014 322.629669,251.614014 325.137207,251.614014 C327.666443,261.325623 324.838745,267.605225 315.235413,273.890472 C317.757935,273.890472 320.025757,273.890472 322.253052,273.890472 C324.430847,282.842926 320.793152,289.461304 310.785950,294.054749 C314.221497,294.054749 316.969635,294.054749 319.739471,294.054749 C318.704498,302.687012 319.646423,306.346893 308.703705,312.791840 C311.396698,312.925018 313.389984,313.023590 315.381927,313.125610 C316.538910,320.057098 312.407349,327.389313 304.868622,331.086029 C307.538300,331.086029 309.664429,331.086029 312.025085,331.086029 C309.818604,338.268768 308.555389,345.649658 300.430756,348.786346 C302.255951,348.940002 304.081116,349.093658 306.549408,349.301483 C302.898590,353.925507 304.068573,360.853455 297.100128,363.483063 C298.306671,363.886871 299.125427,364.160889 300.791595,364.718536 C298.201447,369.449402 295.516022,373.814392 293.387085,378.435791 C292.008209,381.428955 291.764740,384.940491 290.420197,387.955566 C289.125793,390.858093 287.348633,393.672455 285.227692,396.024139 C284.208466,397.154297 281.626678,397.959930 280.234619,397.488617 C272.657318,394.923065 265.119232,395.274170 257.537567,397.023163 C245.070404,399.899139 233.217377,414.466553 233.047424,427.162079 C233.019669,429.235870 233.618637,431.318054 233.972794,433.697906 C231.849930,433.697906 229.759048,433.697906 227.111053,433.697906 C227.111053,400.067047 227.111053,366.195587 227.111053,332.164459 C224.269104,332.164459 221.975708,332.164459 219.127014,332.164459 C219.127014,365.937988 219.127014,399.813416 219.127014,433.815826 C216.476807,433.815826 214.381500,433.815826 211.987091,433.815826 C214.812973,423.003387 210.422226,414.237122 203.999680,406.582611 C198.864838,400.462738 191.537872,396.843567 183.599640,396.206177 C177.711853,395.733459 171.681015,397.300446 165.695801,397.617767 C164.015488,397.706848 161.434677,397.112579 160.699615,395.936401 C157.329086,390.542969 153.110153,385.807678 152.355255,378.687012 C151.846924,373.892059 147.829269,369.469147 145.231140,364.597778 C146.987122,364.120636 147.815811,363.895447 149.217453,363.514557 C141.740372,361.193115 143.282959,353.893616 139.402756,349.215302 C141.957367,349.077606 143.762329,348.980316 146.551804,348.829987 C138.302109,345.362701 135.355118,339.072174 134.663986,331.170624 C136.383896,331.083801 138.436707,330.980194 141.819946,330.809418 C133.119278,327.420563 130.472031,321.157776 130.009415,313.185577 C132.254639,313.087006 134.370880,312.994080 137.783691,312.844238 C128.820328,309.105072 126.447983,302.360535 126.018143,294.126831 C128.982590,294.126831 131.760590,294.126831 135.033432,294.126831 C124.072723,287.603851 123.419472,286.489075 123.271584,274.137695 C125.677612,274.137695 128.090485,274.137695 130.065567,274.137695 C127.210205,271.090790 123.405457,268.443176 121.698189,264.809937 C120.006180,261.209198 120.428238,256.615082 119.879662,252.099243 C123.023224,252.099243 125.764885,252.099243 128.506561,252.099243 C120.193459,247.942001 117.539627,241.104141 118.090248,232.168762 C121.319366,232.168762 124.417145,232.168762 127.514931,232.168762 C117.865738,228.305557 115.214287,221.160461 117.464287,211.293518 C120.192429,211.293518 123.276878,211.293518 127.771965,211.293518 C124.923279,209.727829 123.148735,209.016144 121.686935,207.896225 C118.248978,205.262222 115.117294,202.536240 115.880020,197.321671 C116.241875,194.847763 115.326614,192.187042 114.919937,189.075546 C118.543388,189.075546 122.038712,189.075546 125.534035,189.075546 C114.928268,185.118195 114.027756,176.563828 115.052925,167.042709 C118.035950,167.042709 121.770340,167.042709 126.101593,167.042709 C116.474174,161.591019 112.271263,158.241272 114.422607,145.050812 C118.061852,145.050812 121.783310,145.050812 126.823692,145.050812 C117.174477,140.131592 113.585533,133.546906 113.787292,123.668053 C114.149292,105.943947 115.756744,88.558464 122.026466,71.881546 C126.163910,60.876297 131.702713,50.657543 140.964935,42.679489 C136.644699,41.997108 136.644699,41.997108 129.565781,48.579041 C128.784393,45.883110 128.113205,43.567318 127.034431,39.845329 C124.613968,44.731071 122.595459,48.805454 119.912552,54.220936 C117.635666,50.994606 115.792702,48.383129 113.349281,44.920815 C112.879341,47.721897 112.384499,50.334789 112.014130,52.965214 C111.562569,56.172215 113.618973,60.647133 108.912750,61.831268 C104.715942,62.887234 102.581245,59.225067 100.708206,56.171040 C91.652260,41.405128 96.574860,25.432875 108.823540,16.053612 C119.000793,8.260520 131.005798,5.049191 143.488068,4.118519 C155.360672,3.233302 167.363251,2.460988 179.205780,3.227944 C193.003525,4.121528 206.786530,6.405407 218.928391,14.002026 C221.543686,15.638297 223.727005,15.925761 226.745056,14.139020 C237.150299,7.978898 248.624680,4.760005 260.649902,4.074503 C272.544250,3.396461 284.551971,2.325581 296.368652,3.244399 C312.669037,4.511852 329.100464,7.164545 341.231537,19.856039 C352.502472,31.647705 352.714600,46.223442 343.267487,59.007877 C342.050690,60.654522 338.854218,62.049931 337.017731,61.629021 C335.642639,61.313858 334.520203,57.979538 334.104736,55.831032 C333.433899,52.362156 333.437256,48.762909 332.036163,45.550125 C330.318054,48.244595 328.599976,50.939060 326.248840,54.626278 C323.500916,48.988365 321.482605,44.847420 318.963776,39.679558 C317.963593,43.391541 317.333618,45.729488 316.784393,47.767750 C312.989319,45.358349 309.559692,43.180984 306.130096,41.003616 C305.749725,41.482754 305.369385,41.961895 304.989044,42.441032 C316.058502,52.470982 322.350220,65.328217 326.566284,79.206024 C331.666260,95.993484 332.900482,113.340492 331.847504,130.754517 C331.442261,137.456085 325.994598,141.212982 320.005951,144.703598 C324.067841,144.703598 327.709015,144.703598 331.263062,144.703598 C333.699860,156.593643 331.113007,160.784180 320.124939,167.001007 C324.102631,167.001007 327.714478,167.001007 330.902710,167.001007 C331.992188,176.513870 331.182373,185.071457 320.487915,189.000778 C323.870209,189.000778 327.252533,189.000778 331.199127,189.000778 C330.518005,193.995422 329.892822,198.579819 329.019165,203.478546 M177.101089,36.373306 C175.419373,37.621685 173.737656,38.870068 172.137650,40.057789 C160.304199,33.910633 154.116318,37.029198 152.591431,49.670353 C150.704758,50.115749 148.836243,50.926235 146.964981,50.932571 C140.070602,50.955936 134.708206,60.039841 136.220978,65.788628 C137.083878,69.067825 136.691269,70.596786 134.089752,72.474091 C127.114700,77.507401 128.895920,88.858612 137.413666,91.073135 C138.384369,91.325500 139.807632,92.638786 139.796585,93.443344 C139.642151,104.701561 145.248032,109.324677 155.430038,106.132027 C157.336929,117.214272 166.097412,118.718636 171.835693,114.390587 C174.452927,112.416565 176.045471,112.918228 178.536392,113.756172 C185.793243,116.197350 193.105667,115.713470 199.564468,111.700844 C203.667816,109.151558 205.548477,110.672340 208.019104,113.662247 C212.773636,119.416115 217.817184,124.931183 223.103653,130.958939 C228.634979,124.509918 233.522964,118.764809 238.468063,113.069298 C240.316559,110.940300 242.127029,108.857018 245.444748,111.030174 C252.555145,115.687592 260.186432,116.357094 268.121002,113.374718 C270.303040,112.554565 271.895996,112.501434 274.040039,114.226944 C275.849854,115.683449 278.869965,116.164597 281.351074,116.155602 C287.817200,116.132172 289.496582,111.155396 290.487396,105.935417 C300.352478,109.484032 308.076202,103.489265 306.629211,93.962227 C306.498779,93.103325 307.868469,91.510963 308.891815,91.067375 C314.148407,88.788765 316.883362,85.707855 315.758514,80.159889 C314.975128,76.296326 311.925812,72.892181 309.426575,68.463905 C312.467377,58.804638 307.450378,52.368111 293.232727,49.504753 C293.050079,37.316978 284.461090,34.037613 273.776917,39.966373 C262.326172,30.527948 255.486847,33.330097 250.948273,44.504757 C250.652328,44.520027 250.342896,44.599831 250.062393,44.541233 C240.247192,42.490795 234.106201,48.239998 235.978973,57.797821 C236.540207,60.662117 234.755600,61.283455 232.604874,62.044220 C227.890274,63.711864 225.786575,67.690536 227.030853,72.547256 C227.853439,75.758080 229.622681,78.837906 229.872070,82.061172 C230.415176,89.081429 231.538742,95.780220 235.283279,101.909775 C235.909454,102.934784 236.053055,105.148430 235.386169,105.922569 C231.447556,110.494659 227.203506,114.803665 222.988708,119.279327 C218.823074,114.828072 214.777374,110.735382 211.067657,106.357964 C210.269089,105.415680 210.226532,103.309967 210.623306,101.974091 C211.885101,97.725777 213.344818,93.515244 215.053253,89.425972 C217.103745,84.517967 214.590851,78.691193 218.760925,74.016853 C220.026764,72.597946 219.779221,68.300110 218.524918,66.515915 C216.587952,63.760628 213.187668,62.034046 210.100204,59.631657 C212.138138,55.398930 211.480728,50.362247 207.519241,47.436298 C204.140656,44.940903 199.281998,44.449421 194.316803,42.821938 C192.767288,37.108261 186.398605,31.217348 177.101089,36.373306 M196.067642,137.395737 C193.261276,139.909210 190.454895,142.422699 187.812851,144.788986 C196.194794,144.788986 204.846817,144.788986 212.180069,144.788986 C208.244614,140.297256 203.841415,135.271667 199.438202,130.246078 C199.800201,129.931747 200.162201,129.617416 200.524200,129.303101 C199.224014,131.836334 197.923828,134.369568 196.067642,137.395737 M233.210052,143.988159 C232.987534,144.270981 232.765015,144.553787 232.542480,144.836609 C232.678101,144.880310 232.813690,144.962158 232.949356,144.962250 C241.466370,144.968307 249.983398,144.967697 259.073578,144.967697 C253.276611,141.110672 250.251984,139.594193 245.487701,129.305695 C243.471542,135.251389239.219574,140.505203 233.210052,143.988159 M293.424561,145.000000 C296.458374,145.000000 299.492218,145.000000 302.526031,145.000000 C295.512512,141.762817 291.810211,136.145828 289.421234,128.930878 C287.411346,136.511261 283.029663,141.589325 274.955139,145.000000 C281.843597,145.000000 287.146027,145.000000 293.424561,145.000000 M155.999130,130.616516 C153.637878,136.925049 150.007858,142.117737 142.048447,144.774780 C152.185226,144.774780 160.844284,144.774780 169.503357,144.774780 C163.146042,142.231567 159.850830,137.028519 157.033249,131.364853 C156.768509,130.832687 156.369049,130.367538 155.999130,130.616516 M240.489777,161.005707 C237.841919,162.919006 235.194046,164.832306 232.752289,166.596680 C241.211487,166.596680 249.899658,166.596680 257.117645,166.596680 C253.551071,162.427750 249.567596,157.771500 246.024185,153.629654 C244.773041,155.339966 242.889481,157.914810 240.489777,161.005707 M188.184296,165.990021 C187.975494,166.276840 187.766678,166.563660 187.557877,166.850494 C187.697647,166.890594 187.837372,166.965668 187.977173,166.965759 C196.485687,166.971329 204.994202,166.970764 212.446350,166.970764 C208.031418,162.562363 203.297882,157.835846 199.050797,153.595062 C198.168472,158.527328 193.682312,162.206985 188.184296,165.990021 M285.033508,160.446060 C282.545441,162.570374 280.057373,164.694702 277.827820,166.598312 C285.878082,166.598312 294.216003,166.598312 301.139130,166.598312 C297.381805,162.594879 293.170990,158.108215 289.202515,153.879791 C288.188293,155.578125 286.882812,157.764130 285.033508,160.446060 M145.244659,166.999802 C153.022614,166.999802 160.800583,166.999802 167.443253,166.999802 C163.602905,162.675476 159.673676,158.251083 156.677368,154.877167 C152.641953,158.357361 148.052353,162.315506 143.462753,166.273636 C143.778229,166.514694 144.093689,166.755753 145.244659,166.999802 M232.462341,210.127289 C241.141769,210.534225 249.821182,210.941162 257.910095,211.320419 C253.637512,206.914520 249.565247,202.715210 246.272522,199.319748 C242.215393,202.642334 237.733139,206.313065 232.462341,210.127289 M191.445267,208.035233 C190.063278,208.874969 188.681274,209.714706 186.971939,210.753342 C196.198868,210.753342 204.853073,210.753342 213.600800,210.753342 C210.850647,208.823441 208.057114,207.269653 205.785980,205.154861 C203.520523,203.045364 201.778610,200.373596 200.299042,198.553436 C197.502060,201.572098 194.748459,204.543915 191.445267,208.035233 M249.491211,180.999664 C248.409561,179.136505 247.327911,177.273346 246.811142,176.383194 C242.551773,180.539993 237.939285,185.041428 234.312881,188.580505 C241.199127,188.580505 249.878769,188.580505 257.668793,188.580505 C255.287476,186.419357 252.625153,184.003159 249.491211,180.999664 M201.027939,178.243820 C200.645645,177.212143 200.263351,176.180466 199.537552,174.221756 C197.777924,181.975067 193.082581,185.776138 186.522446,188.769684 C196.179688,188.769684 204.826340,188.769684 212.141510,188.769684 C208.952316,185.846649 205.168289,182.378433 201.027939,178.243820 M204.424988,232.000000 C207.459152,232.000000 210.493317,232.000000 212.804413,232.000000 C208.522629,228.109283 204.109482,224.099228 200.205093,220.551437 C196.710861,223.918945 192.342514,228.128860 188.325699,232.000000 C192.836746,232.000000 198.142715,232.000000 204.424988,232.000000 M242.025116,224.458542 C238.887543,226.954269 235.749954,229.449982 232.892334,231.723007 C241.242050,231.723007 249.878448,231.723007 257.393280,231.723007 C253.539047,228.049988 249.241928,223.954910 245.109039,220.016357 C244.592407,220.816208 243.576599,222.388916 242.025116,224.458542 M151.535233,182.977615 C149.231949,184.891617 146.928665,186.805603 144.773697,188.596344 C152.530487,188.596344 160.546890,188.596344 167.090622,188.596344 C163.626328,184.691544 159.716095,180.284103 156.107193,176.216309 C155.012909,177.889908 153.524063,180.166931 151.535233,182.977615 M300.785980,187.988007 C296.723663,184.053146 292.661346,180.118286 289.432068,176.990356 C286.153107,180.495178 282.098877,184.828720 278.196411,189.000000 C281.591797,189.000000 285.678864,189.111145 289.757019,188.968185 C293.697479,188.830078 297.628754,188.430176 300.785980,187.988007 M162.011948,205.518219 C160.069016,202.835999 158.126083,200.153778 157.083145,198.714005 C153.331146,202.675934 149.236603,206.999557 145.837387,210.588959 C152.864777,210.588959 161.204453,210.588959 169.580948,210.588959 C167.087799,208.972824 164.816071,207.500244 162.011948,205.518219 M286.027771,223.456680 C282.984650,226.315201 279.941559,229.173706 277.131897,231.812927 C284.833923,231.812927 293.160278,231.812927 300.196381,231.812927 C296.426208,227.983521 292.042999,223.531433 288.016479,219.441635 C287.786774,219.999161 287.180359,221.471054 286.027771,223.456680 M294.516602,206.008987 C292.703369,203.215286 290.890137,200.421570 289.796936,198.737228 C285.951935,202.540543 281.482056,206.961975 277.703339,210.699738 C284.910828,210.699738 293.218262,210.699738 302.015778,210.699738 C299.354767,209.116409 297.197144,207.832596 294.516602,206.008987 M149.762024,232.000000 C156.360458,232.000000 162.958893,232.000000 168.550644,232.000000 C164.618301,227.795883 160.595093,223.494614 157.404663,220.083694 C153.873398,223.691162 149.558060,228.099625 145.740067,232.000000 C145.955017,232.000000 147.399780,232.000000 149.762024,232.000000 M238.694839,252.000000 C244.649628,252.000000 250.604401,252.000000 255.613480,252.000000 C252.018494,248.061630 248.365784,244.060043 245.474335,240.892426 C241.888199,244.235901 237.518066,248.310303 233.560577,252.000000 C234.262054,252.000000 236.011566,252.000000 238.694839,252.000000 M209.163803,252.000000 C210.617599,251.926895 212.071396,251.853806 212.043076,251.855225 C208.218384,248.218811 203.946808,244.157501 200.597580,240.973145 C197.438431,244.299713 193.712173,248.223434 190.125671,252.000000 C195.758469,252.000000 201.998749,252.000000 209.163803,252.000000 M193.843597,294.000000 C200.723343,294.000000 207.603073,294.000000 213.474503,294.000000 C209.569077,290.502838 205.304276,286.683899 201.869736,283.608398 C198.273514,286.914581 194.163528,290.693085 190.566528,294.000000 C190.653534,294.000000 191.798050,294.000000 193.843597,294.000000 M247.008179,286.512817 C246.154236,285.089691 245.300293,283.666595 244.875046,282.957886 C240.662933,286.721832 236.417709,290.515381 232.830322,293.721069 C239.837692,293.721069 248.146454,293.721069 255.474838,293.721069 C253.120407,291.736725 250.332092,289.386688 247.008179,286.512817 M164.645828,247.966812 C162.686279,245.367767 160.726730,242.768738 159.245895,240.804642 C155.596573,244.499893 151.748077,248.396805 148.479202,251.706818 C155.205612,251.706818 162.863708,251.706818 170.754791,251.706818 C168.766891,250.343964 167.084274,249.190399 164.645828,247.966812 M290.964355,245.628891 C289.654083,243.708664 288.343811,241.788437 287.648224,240.769028 C283.669098,244.680740 279.792389,248.491760 276.541809,251.687256 C283.232056,251.687256 290.882050,251.687256 298.699402,251.687256 C295.964722,249.795410 293.501526,248.091370 290.964355,245.628891 M190.431717,273.146606 C197.802170,273.532318 205.172638,273.918030 210.284149,274.185547 C207.214890,271.146362 203.518555,267.486237 200.384048,264.382477 C198.401855,266.241302 194.804504,269.614807 190.431717,273.146606 M233.430649,273.147827 C240.801178,273.532928 248.171692,273.918030 255.043900,274.277100 C251.177872,270.119720 247.630417,266.304932 244.988892,263.464355 C241.607101,266.451202 237.906250,269.719879 233.430649,273.147827 M154.869965,294.000000 C161.410095,294.000000 167.950211,294.000000 173.399063,294.000000 C169.760162,290.698700 165.662949,286.981598 162.066742,283.719025 C158.934448,286.670990 154.911224,290.462585 151.157715,294.000000 C151.691757,294.000000 152.832947,294.000000 154.869965,294.000000 M281.498749,286.008545 C278.307220,288.777283 275.115723,291.545990 272.591644,293.735718 C279.544434,293.735718 287.528229,293.735718 294.447876,293.735718 C290.936554,290.372101 287.009613,286.610352 283.212158,282.972656 C283.034485,283.344330 282.527130,284.405701 281.498749,286.008545 M285.513641,261.272125 C282.151978,265.670074 278.790314,270.068024 275.945587,273.789673 C281.860840,273.789673 289.179962,273.789673 296.928223,273.789673 C292.070190,270.491028 287.246735,267.761017 285.513641,261.272125 M163.954773,267.428711 C162.680954,265.459198 161.407150,263.489685 160.841522,262.615143 C157.545746,266.152344 153.759933,270.215485 150.452652,273.765015 C156.868332,273.765015 164.188614,273.765015 171.368958,273.765015 C169.031647,271.806580 166.741852,269.887939 163.954773,267.428711 M204.446808,313.000000 C207.474411,313.000000 210.502029,313.000000 213.529633,313.000000 C213.015961,313.341400 212.502289,313.682770 211.988632,314.024170 C208.273010,310.300842 204.557373,306.577545 201.747208,303.761536 C199.744415,305.903229 196.304138,309.582092 193.107895,313.000000 C196.200470,313.000000 199.841370,313.000000 204.446808,313.000000 M249.609970,310.071747 C247.358810,307.350128 245.107651,304.628510 242.856491,301.906891 C243.474121,302.220764 244.091751,302.534607 244.709396,302.848450 C241.121414,306.578094 237.533447,310.307739 235.138138,312.797638 C239.493805,312.797638 246.482666,312.797638 254.400894,312.797638 C252.475601,311.828491 251.293091,311.233246 249.609970,310.071747 M162.975296,305.243134 C160.226700,307.812286 157.478104,310.381439 154.860382,312.828247 C161.515579,312.828247 168.499603,312.828247 174.304138,312.828247 C171.101501,309.557556 167.409821,305.787445 164.018097,302.323669 C163.946655,302.482819 163.493622,303.492126 162.975296,305.243134 M279.967163,304.374176 C277.208069,307.256470 274.448975,310.138733 272.014465,312.681946 C278.252655,312.681946 284.897797,312.681946 290.471558,312.681946 C287.440857,309.387390 284.085938,305.740326 280.918884,302.297516 C281.070587,302.068848 280.550751,302.852448 279.967163,304.374176 M242.001007,339.595642 C241.855789,339.154358241.710556,338.713043 241.565353,338.271759 C241.438553,338.379303 241.297333,338.473816 241.187057,338.596222 C237.901337,342.243011 234.618683,345.892548 232.016388,348.784912 C237.496078,348.784912 244.489105,348.784912 250.395523,348.784912 C247.875763,346.236603 244.954971,343.282715 242.001007,339.595642 M200.448624,345.031982 C198.464310,346.253448 196.479996,347.474945 194.496323,348.696045 C201.598831,348.696045 208.536499,348.696045 214.355896,348.696045 C211.237152,345.924500 207.656097,342.742096 204.212448,339.681793 C203.294022,341.058838 202.141083,342.787506 200.448624,345.031982 M239.633652,331.000000 C243.616806,331.000000 247.599960,331.000000 251.129471,331.000000 C247.932098,327.518677 244.891983,324.208557 243.320679,322.497711 C240.484711,325.384094 237.211945,328.714996 233.939194,332.045929 C233.456055,331.697266 232.972931,331.348633 232.489807,331.000000 C234.559097,331.000000 236.628372,331.000000 239.633652,331.000000 M203.028717,320.858704 C200.373077,324.321960 197.717422,327.785217 195.416580,330.785767 C200.874771,330.785767 207.188690,330.785767 212.397095,330.785767 C209.631592,327.542755 206.520752,323.894806 203.028717,320.858704 M167.530228,342.981445 C165.237549,344.894775 162.944870,346.808136 160.582458,348.779663 C167.161011,348.779663 173.825500,348.779663 179.571793,348.779663 C176.677551,346.122345 173.255722,342.980652 169.782288,339.791565 C169.430771,340.324860 168.729065,341.389404 167.530228,342.981445 M276.456512,349.000000 C279.479614,349.000000 282.502716,349.000000 285.312378,349.000000 C281.843292,345.784943 278.509186,342.695007 275.901184,340.277954 C272.788361,343.096039 269.355957,346.203430 266.266907,349.000000 C268.893188,349.000000 272.194214,349.000000 276.456512,349.000000 M165.577179,331.000000 C169.234390,331.000000 172.891602,331.000000 176.548798,331.000000 C175.981659,331.358398 175.414505,331.716797 174.847351,332.075226 C171.743500,329.097992 168.639648,326.120789 165.535782,323.143585 C166.285767,322.632874 167.035751,322.122162 167.785721,321.611481 C164.459549,324.709351 161.133377,327.807251 157.705338,331.000000 C159.866791,331.000000 162.249893,331.000000 165.577179,331.000000 M273.867401,331.000000 C278.778931,331.000000 283.690491,331.000000 288.602020,331.000000 C287.965210,331.334473 287.328400,331.668945 286.691589,332.003418 C284.020325,328.317932 281.349091,324.632416 278.677856,320.946930 C279.231110,321.792023 279.784363,322.637115 280.337616,323.482178 C277.200653,326.409027 274.063690,329.335876 270.926727,332.262726 C270.471680,331.841827 270.016632,331.420898 269.561584,331.000000 C270.699707,331.000000 271.837830,331.000000 273.867401,331.000000 M209.020599,359.531067 C207.799393,357.822021 206.578186,356.112976 205.356964,354.403900 C205.956314,355.044098 206.555664,355.684296 207.155014,356.324493 C204.113464,359.349426 201.071899,362.374329 198.030334,365.399231 C197.537033,364.861572 197.043716,364.323914 196.550400,363.786255 C202.861237,363.786255 209.172058,363.786255 215.696945,363.786255 C213.479889,362.432129 211.523117,361.237000 209.020599,359.531067 M248.780975,362.987335 C245.794052,360.323669 242.807114,357.659973 240.495102,355.598175 C237.625320,358.157715 234.225922,361.189606 230.652313,364.376892 C236.877045,363.970245 243.218918,363.555908 248.780975,362.987335 M282.570648,363.153992 C279.293030,360.541412 276.015411,357.928833 272.737793,355.316284 C273.761078,355.723877 274.784393,356.131500 275.807678,356.539093 C272.487610,359.442810 269.167542,362.346497 267.338959,363.945740 C270.511230,363.945740 276.457153,363.945740 282.570648,363.153992 M170.969193,357.327271 C168.517380,359.493713 166.065567,361.660156 163.883545,363.588196 C169.547836,363.588196 175.561218,363.588196 181.574600,363.588196 C180.961639,364.055359 180.348679,364.522491 179.735703,364.989655 C176.722733,362.036957 173.709747,359.084229 170.696762,356.131531 C171.313126,355.513123 171.929504,354.894684 172.545868,354.276276 C172.041428,355.049957 171.536987,355.823669 170.969193,357.327271 M214.402954,378.945251 C211.635498,376.515778 208.868042,374.086304 206.100586,371.656830 C206.974258,372.273560 207.847946,372.890320 208.721634,373.507050 C206.028656,375.674286 203.335663,377.841492 201.900131,378.996765 C204.273331,378.996765 208.930237,378.996765 214.402954,378.945251 M239.042267,371.671112 C236.970505,374.495026 234.898743,377.318909 232.826981,380.142822 C232.426468,379.669922 232.025940,379.197052 231.625427,378.724152 C236.591415,378.724152 241.557419,378.724152 245.592804,378.724152 C243.722366,376.384430 241.652786,373.795593 239.042267,371.671112 M273.015594,375.519318 C272.014008,374.339905 271.012451,373.160461 270.169464,372.167786 C267.863220,374.360870 265.639801,376.475189 263.379791,378.624268 C267.872467,378.624268 272.248077,378.624268 277.469666,378.624268 C275.650330,377.420532 274.603363,376.727814 273.015594,375.519318 M177.964554,374.437744 C177.358841,373.586090 176.753128,372.734406 176.276291,372.063934 C173.856857,374.369141 171.635376,376.485779 169.402390,378.613342 C173.877960,378.613342 178.253784,378.613342 183.117249,378.613342 C181.234573,377.142059 179.851547,376.061279 177.964554,374.437744 M213.068008,390.588562 C211.304199,389.137817 209.540405,387.687103 207.770294,386.231201 C205.819077,387.983063 203.707031,389.879333 201.563263,391.804047 C205.838791,391.804047 210.156967,391.804047 214.475128,391.804047 C214.400375,391.561737 214.364136,391.295166 214.233597,391.088013 C214.173904,390.993286 213.928452,391.015656 213.068008,390.588562 M240.218536,392.000031 C241.678299,391.930237 243.138062,391.860443 244.404694,391.799896 C242.090027,389.736176 240.021988,387.892334 238.228424,386.293243 C235.946457,388.141174 233.722031,389.942505 231.181274,392.000000 C234.122681,392.000000 236.725937,392.000000 240.218536,392.000031 M182.968201,392.000000 C183.820267,392.000000 184.672333,392.000000 185.668381,392.000000 C183.313583,389.913788 181.316986,388.144928 179.311295,386.367981 C177.454727,388.049316 175.480728,389.837006 173.092285,392.000000 C176.354950,392.000000 179.230316,392.000000 182.968201,392.000000 M268.234589,391.999969 C269.715729,391.929657 271.196869,391.859375 272.603973,391.792572 C270.349487,389.724213 268.376892,387.914459 266.631653,386.313324 C264.456879,388.291901 262.484314,390.086548 260.381134,392.000000 C262.803955,392.000000 265.083679,392.000000 268.234589,391.999969 z M191.766876,464.409363 C182.294312,458.195038 171.995468,454.110474 160.599045,454.063202 C121.112724,453.899414 81.625313,454.001343 42.138317,453.997589 C38.794739,453.997284 35.337170,454.165802 34.995224,449.428619 C34.697666,445.306396 36.728073,443.941925 40.671638,443.955231 C66.496170,444.042236 92.321144,444.000000 118.145973,444.000000 C131.474915,444.000000 144.806763,443.823181 158.132141,444.041412 C178.119034,444.368744 195.195023,452.159058 209.802216,465.434143 C214.601364,469.795654 218.654785,474.977722 223.145233,479.889618 C226.022156,476.518921 228.962891,472.898407 232.087387,469.444031 C243.554382,456.766449 258.184143,449.532745 274.448822,445.298706 C277.729248,444.444702 281.222595,444.060608 284.619049,444.053528 C324.605682,443.970184 364.592743,443.959106 404.578949,444.114838 C406.686920,444.123047 409.645203,445.227264 410.706207,446.820862 C412.636627,449.720215 410.231842,453.401398 406.605225,453.957886 C405.302490,454.157745 403.944305,453.999542 402.611450,453.999573 C365.790253,454.000122 328.966339,454.254700 292.149231,453.867218 C278.550629,453.724121 266.261536,456.985443 254.201477,464.351868 C253.062378,465.154327 252.452560,465.450500 251.842743,465.746704 C251.953293,466.026489 252.063843,466.306274 252.174393,466.586029 C253.141174,466.084015 254.107956,465.582001 255.074738,465.079956 C267.599121,459.522461 280.819397,458.825073 294.290741,458.927917 C324.450348,459.158264 354.613098,458.959076 384.774017,459.075317 C387.264374,459.084900 390.090637,459.641815 392.096008,460.957611 C393.106201,461.620453 393.407990,465.046112 392.605499,466.336517 C391.723236,467.755280 389.208679,468.877869 387.396606,468.890564 C363.901886,469.055634 340.405609,468.999969 316.909729,469.000000 C307.078125,469.000000 297.220276,469.452789 287.421509,468.885773 C275.078827,468.171570 264.024719,471.346649 253.233871,478.329834 C251.906647,479.313416 251.074387,479.814514 250.242111,480.315582 C250.421524,480.614014 250.600922,480.912445 250.780334,481.210907 C251.878479,480.500549 252.976639,479.790222 254.074799,479.079895 C262.529541,475.787201 271.268707,474.837006 280.340393,474.910614 C309.812195,475.149628 339.287354,474.962982 368.760590,475.085175 C370.676117,475.093109 373.226135,475.805908 374.308014,477.141205 C375.266479,478.324158 375.099457,481.040802 374.431152,482.671265 C374.068878,483.555206 371.623505,483.943359 370.116302,483.947021 C340.809204,484.018433 311.501892,483.969910 282.194733,484.016083 C271.694000,484.032623 261.592194,485.726929 252.239594,492.337280 C251.647125,493.138214 251.515488,493.473541 251.383865,493.808838 C251.947525,493.565857 252.511169,493.322845 253.074829,493.079834 C259.077271,489.930298 265.542999,489.922943 272.112671,489.952332 C298.088104,490.068512 324.064423,490.022339 350.040314,489.974976 C353.760834,489.968201 357.114471,489.896942 357.047302,495.133728 C356.984009,500.070374 353.796387,500.024078 350.273590,500.019592 C322.632568,499.984283 294.989594,500.166870 267.351959,499.858276 C261.868225,499.797058 257.308105,501.708069 253.332947,504.492096 C247.646988,508.474243 241.303040,510.567078 234.867371,510.795319 C218.962463,511.359497 202.747086,512.796997 188.595749,502.438171 C186.108505,500.617493 182.186264,500.121460 178.919846,500.100769 C151.113358,499.924683 123.305222,499.971313 95.497765,500.034393 C91.796593,500.042786 88.919197,499.699615 88.950104,494.904083 C88.981918,489.965729 92.146484,489.974731 95.688850,489.979370C123.829422,490.016357 151.971130,489.881256 180.109497,490.133362 C184.134247,490.169403 188.142944,491.998688 192.639893,493.320496 C193.660385,493.683441 194.200043,493.723877 194.739716,493.764313 C194.424805,493.324738 194.109879,492.885162 193.794952,492.445587 C188.005493,488.582550 182.022995,485.103027 174.802002,485.019318 C142.251831,484.641754 109.700645,484.350403 77.150513,483.968689 C74.453018,483.937042 70.844963,485.318756 70.926430,480.123474 C71.001205,475.354218 73.747200,474.957581 77.469429,474.964630 C109.770805,475.025970 142.074493,474.811005 174.371796,475.179688 C179.978348,475.243683 185.557999,477.664825 191.674469,479.359314 C193.340271,480.122833 194.481659,480.524261 195.623047,480.925720 C195.714157,480.692474 195.805283,480.459259 195.896393,480.226013 C194.853653,479.621002 193.810928,479.016022 192.768188,478.411011 C184.269318,472.863525 175.301407,468.928802 164.835052,468.960083 C129.677292,469.065094 94.518997,468.983002 59.360973,469.026733 C55.910973,469.031036 52.975796,468.818420 52.969723,464.260193 C52.966526,461.862823 53.132759,459.967712 56.269482,459.900055 C58.173790,459.858978 60.066830,459.043884 61.965721,459.040649 C94.957558,458.984283 127.949524,459.004364 160.941467,458.997437 C171.095673,458.995331 180.895355,460.689453 190.710693,465.386414 C192.151596,465.944550 193.042953,466.114594 193.934326,466.284607 C193.993607,466.065674 194.052872,465.846710 194.112152,465.627777 C193.330399,465.221649 192.548630,464.815521 191.766876,464.409363 M248.141098,468.440643 C249.483582,468.220184 250.826065,467.999725 252.168549,467.779236 C252.063385,467.363770 251.958221,466.948273 251.853058,466.532806 C250.799438,466.979431 249.745819,467.426056 248.141098,468.440643 M195.225220,466.816376 C194.931778,466.761414 194.637848,466.668030 194.345169,466.671814 C194.239365,466.673157 194.136581,466.907257 194.032394,467.035156 C195.154099,467.762207 196.275818,468.489258 197.397537,469.216309 C197.560760,468.933319 197.723969,468.650360 197.887192,468.367371 C197.264450,467.912262 196.641693,467.457153 195.225220,466.816376 zM60.605301,369.884247 C59.860916,371.825989 59.065201,373.498413 59.056335,375.174957 C58.964664,392.505463 58.998833,409.836670 59.001095,427.167664 C59.001488,430.183746 59.020275,433.302765 55.114994,433.967804 C50.960400,434.675354 49.020649,432.915100 49.012836,428.518616 C48.981743,411.021027 48.950089,393.523071 49.048546,376.025970 C49.065189,373.067749 48.466038,370.815552 46.301929,368.533752 C44.680908,366.824554 44.233685,364.002106 43.362762,361.912689 C40.040901,365.801819 34.605877,367.239471 30.673325,364.901306 C26.151457,362.212738 24.313231,357.432404 25.962374,352.356659 C20.553627,352.564819 14.270609,355.526337 10.962337,348.566986 C8.379268,343.133240 10.061925,338.420715 14.769782,334.787170 C12.266422,333.867310 9.616292,333.495636 7.815790,332.059082 C6.086119,330.679047 4.366719,328.283295 4.155927,326.182068 C3.387168,318.518921 5.145080,316.469696 14.318340,313.897583 C7.896662,312.720032 2.711091,311.472900 2.946428,304.383911 C3.128216,298.907898 3.433849,298.005585 8.683739,294.612122 C0.785753,289.139282 0.462927,281.296478 6.932740,276.940948 C5.543703,273.282318 3.559599,270.001068 3.227401,266.560394 C2.965921,263.852142 4.741605,260.947174 5.754095,257.671143 C0.825459,253.432144 2.286543,246.726578 5.955657,241.919891 C1.440102,235.650314 1.639109,230.517197 6.606892,225.621796 C2.231888,222.301086 2.310945,217.689713 3.470608,213.123306 C4.389113,209.506516 7.217627,208.167023 13.000000,207.866318 C13.000000,205.134277 13.000000,202.364105 13.000000,199.593948 C13.000000,183.262802 13.298732,166.923965 12.878993,150.603622 C12.655778,141.924515 11.576669,133.169327 5.865973,125.870171 C15.933663,121.935974 26.310957,127.491989 28.927320,138.207901 C29.652481,141.177948 29.953678,144.322418 29.956810,147.387375 C30.015543,204.879608 29.956053,262.371979 30.031240,319.864197 C30.049782,334.041046 39.452888,344.339325 53.287174,344.753387 C65.019432,345.104553 76.866592,337.534119 76.919090,322.470154 C77.119446,264.978577 76.925148,207.485565 77.130592,149.994019 C77.148598,144.953995 78.515617,139.758240 80.120316,134.921570 C82.610237,127.416725 91.801865,121.568298 101.313980,125.592957 C94.550957,136.222748 94.848442,148.135208 94.962723,160.077209 C95.114059,175.890778 95.000000,191.706894 95.000000,205.558182 C99.055412,208.834030 103.172394,210.616409 104.534348,213.639847 C106.346992,217.663788 105.310829,222.435333 101.006302,225.417404 C106.355385,231.114014 106.604424,235.479462 102.044334,242.039444 C106.588509,248.425308 106.341187,252.841797 101.120369,258.538940 C106.913857,264.712830 106.521835,271.171234 99.664894,276.064850 C104.179466,278.201538 105.973396,281.998016 104.852638,286.426666 C104.087418,289.450439 101.932365,292.122498 100.335999,295.067444 C104.348579,297.892120 106.354912,302.154358 104.892578,307.109283 C103.485382,311.877411 99.637886,313.351135 94.634605,313.606750 C101.579605,315.905884 105.817146,320.084351 103.712181,327.389130 C102.407570,331.916473 98.723000,334.595123 92.883499,333.927368 C97.172913,338.666412 100.321846,343.380829 96.233253,349.188507 C93.285309,353.375946 88.902946,354.158813 82.034966,351.903564 C82.138847,356.909882 82.527573,362.171051 77.249092,364.878662 C72.352051,367.390594 68.219414,365.265961 64.509804,362.212646 C63.292595,364.722656 62.105907,367.169739 60.605301,369.884247 zM440.296173,242.712738 C444.446411,248.562927 444.105652,253.220154 440.266846,257.360626 C441.294159,261.120178 442.995667,264.306091 442.764221,267.344788 C442.527161,270.457642 440.397644,273.426392 439.029419,276.614441 C444.904297,280.072510 445.445282,290.908936 436.986145,294.570618 C442.768829,296.819672 443.894073,301.437653 442.915222,306.649628 C441.935730,311.864990 437.753906,313.236420 432.400726,313.771851 C441.421112,315.045441 443.414978,321.047241 441.714050,327.909546 C440.652313,332.192932 436.321503,334.561218 430.234985,333.988586 C436.184723,338.539093 437.920532,343.777405 434.760620,349.262695 C431.409576,355.079742 425.484070,352.990082 420.234772,352.234772 C421.710632,358.065521 419.701050,362.555267 414.581482,365.100861 C410.504517,367.128021 405.813049,365.704041 402.970062,362.139404 C401.489532,364.661713 399.702118,367.381348 398.271637,370.277344 C397.523895,371.791077 397.061798,373.613007 397.052948,375.298798 C396.965424,391.962006 397.071198,408.626434 396.943512,425.289124 C396.916016,428.877991 398.773529,434.045105 392.110107,433.965576 C385.420624,433.885803 387.103607,428.657166 387.057709,424.897919 C386.905090,412.402008 386.862823,399.901093 387.046539,387.406006 C387.176483,378.567719 387.820557,369.718811 380.960480,362.652466 C377.792297,365.206543 373.680817,367.441986 368.807220,364.895172 C363.740784,362.247559 363.643250,357.354156 364.038574,351.935669 C358.022614,353.675507 352.293976,354.479065 349.034851,348.000336 C346.332214,342.627899 348.710388,338.326324 352.817047,334.632538 C350.285187,333.748566 347.512360,333.476013 345.790771,331.987549 C343.998627,330.438019 342.470123,327.818787 342.146637,325.484283 C341.304352,319.406891 343.598511,316.803070 351.954559,313.706696 C346.346069,312.795410 341.518982,311.908356 340.966583,305.690369 C340.518127,300.642883 342.214783,296.858917 346.825623,294.456024 C339.219482,291.368927 338.747345,279.455414 345.288727,276.610596 C343.858429,273.624084 341.530518,270.719879 341.255402,267.632721 C340.985809,264.608521 342.806396,261.398041 343.917389,257.549530 C340.023895,253.178162 339.746704,250.545044 342.956177,243.791519 C343.388092,242.882660 343.410736,241.359650 342.933838,240.505920 C339.604767,234.546127 340.025848,230.712021 344.973907,225.439713 C340.704132,222.475204 339.876892,217.866226 341.363220,213.658142 C342.669708,209.959229 346.025940,207.188217 350.998871,207.982254 C350.998871,186.783096 351.448792,165.956970 350.737793,145.170547 C350.510437,138.523438 347.208099,131.981506 345.320648,125.419113 C357.965118,122.364090 367.986877,130.311554 367.991730,144.414062 C368.011566,202.070389 367.895782,259.727051 368.079865,317.382812 C368.121216,330.333984 372.816193,341.348389 388.584381,344.226105 C401.394684,346.564026 412.950043,337.330353 414.903198,326.893311 C415.801025,322.095490 415.950500,317.104767 415.956512,312.200958 C416.024963,256.377716 415.996857,200.554367 416.002869,144.731033 C416.003967,134.581665 421.729156,126.659721 431.238586,124.472702 C433.907074,123.858994 436.943054,124.843124 440.465607,125.151726 C432.984436,135.660309 432.847107,147.309036 432.960968,159.084137 C433.117096,175.229706 433.000000,191.377914 433.000000,208.002167 C437.728180,207.461777 441.596588,209.093063 442.688049,213.541412 C443.711884,217.714218 443.917786,222.330124 439.463715,225.316467 C444.212189,230.204910 444.375427,235.018906 440.296173,242.712738 zM388.000031,193.246841 C389.639496,188.896347 391.278961,184.986053 393.098236,180.646957 C386.614441,173.929779 384.406464,162.704300 389.133972,156.159271 C391.801331,152.466415 392.641083,149.852585 391.293091,145.135406 C389.200623,137.812790 394.257202,129.487289 402.426910,126.131798 C407.354584,124.107918 413.050354,123.902367 418.433075,123.093430 C419.249481,122.970741 420.240692,124.011169 421.795349,124.869202 C412.372101,132.571976 411.903381,142.665176 411.931152,153.198914 C412.077942,208.848328 412.001984,264.498322 411.998016,320.148132 C411.997375,329.275696 407.464813,336.749207 399.967804,339.508942 C391.308105,342.696655 382.065063,340.697205 376.454742,333.969177 C372.821747,329.612335 372.017792,324.353607 372.015411,318.937378 C371.990387,262.454498 371.923676,205.971405 372.075165,149.488922 C372.100403,140.082169 370.310242,131.712753 362.899872,125.353477 C368.757294,118.781456 383.463409,121.757523 392.840668,131.431168 C388.772797,136.399094 386.093719,141.764130 389.651123,148.337677 C390.060608,149.094330 389.469299,151.056046 388.705353,151.681824C380.897705,158.077515 381.229767,167.164978 387.565277,176.080841 C388.487000,177.377945 389.321411,178.737122 390.158539,180.010300 C380.037781,190.556290 383.171448,205.102966 390.961334,207.527374 C390.020599,203.130646 389.010315,198.408844 388.000031,193.246841 M389.859314,237.331894 C390.012451,238.332977 390.165588,239.334076 390.318726,240.335159 C390.831482,240.182678 391.344208,240.030212 391.856934,239.877747 C391.264587,238.560226 390.672241,237.242722 390.005249,235.109985 C387.165741,226.928055 386.487549,218.877899 392.245270,210.923065 C383.153839,213.829056 382.318329,230.534180 389.859314,237.331894 M388.997681,303.746613 C390.077179,310.156250 389.003967,316.950989 391.311279,323.140991 C392.159912,323.085205 393.008545,323.029388 393.857178,322.973602 C393.857178,319.856354 394.206268,316.692474 393.797485,313.629791 C391.897644,299.395630 385.913605,285.485291 390.323547,270.718750 C382.454102,281.068054 387.348572,292.035645 388.997681,303.746613 M388.968689,265.647522 C389.861969,267.222595 390.755249,268.797668 391.648499,270.372711 C392.165161,270.241577 392.681793,270.110443 393.198456,269.979279 C392.930084,268.616119 393.037262,267.006714 392.331451,265.930420 C388.223053,259.665283 385.285553,253.305023 388.680603,245.682755 C389.351227,244.177124 389.538757,242.456314 390.106232,240.213638 C383.664856,246.230225 382.274414,257.752014 388.968689,265.647522 zM34.000000,221.000000 C34.000000,196.502945 33.982761,172.505890 34.008759,148.508865 C34.018707,139.327301 31.241991,131.312607 24.504349,124.868614 C31.577715,120.218315 40.286758,121.331345 48.241787,125.813995 C49.920113,126.759743 51.586548,127.975761 52.767925,129.458191 C53.446709,130.309921 53.690773,132.238525 53.189995,133.184387 C49.164726,140.787292 48.962646,142.429581 51.941517,150.013504 C43.313755,157.198914 40.644619,166.340790 52.343449,179.159134 C50.826218,174.773834 48.805038,171.426147 48.713272,168.026398 C48.602135,163.908844 49.375458,159.382538 51.165722,155.716629 C52.680813,152.614197 54.308533,150.670456 53.262905,146.526947 C50.795715,136.750259 57.301548,127.651085 68.247826,124.046471 C73.111023,122.445015 78.074059,122.094475 83.335548,124.573685 C75.259354,131.844772 73.080132,141.277756 73.058899,151.225174 C72.937614,208.051270 72.914665,264.877991 73.068596,321.703918 C73.101234,333.751770 65.722275,339.447540 56.413261,340.811554 C47.400078,342.132202 38.399765,337.763641 35.059174,327.661713 C34.361198,325.551056 34.047443,323.218597 34.043232,320.987427 C33.980618,287.825043 34.000000,254.662506 34.000000,221.000000 M53.712044,210.114197 C53.298954,210.511444 52.873154,210.897659 52.499031,211.328720 C52.471695,211.360199 52.818558,211.716446 52.991436,211.921692 C53.462292,211.406967 53.933147,210.892227 54.826401,209.699707 C54.667484,209.173676 54.508568,208.647659 54.349651,208.121628 C54.113037,208.218063 53.876427,208.314514 53.639809,208.410950 C53.920734,209.088669 54.201660,209.766373 53.712044,210.114197 M51.743084,238.177475 C51.629730,238.864410 51.516373,239.551346 50.861443,240.710342 C49.240990,244.803635 46.781193,248.781723 46.199818,253.017654 C45.359928,259.137177 48.792530,264.234253 51.712990,267.392639 C50.264957,272.570190 48.058517,276.659393 48.207329,280.660980 C48.606510,291.395264 49.944443,302.099243 51.061378,312.799438 C51.412117,316.159485 52.244965,319.469208 52.857147,322.801971 C54.707966,321.545227 56.053551,320.069397 55.880535,318.800690 C54.923733,311.784576 53.416763,304.844055 52.439484,297.830078 C50.997688,287.482239 47.728954,276.848999 55.914173,268.031403 C54.174091,265.625427 52.437618,263.643616 51.172119,261.396606 C47.279602,254.484848 49.017525,247.726227 52.744457,240.774719 C52.522861,239.491470 52.301262,238.208206 52.005245,236.109482 C49.363819,228.372955 48.804649,220.595383 52.392586,212.169235 C44.155960,217.839294 44.090042,227.629440 51.743084,238.177475 M51.158806,180.277161 C47.098415,185.996735 43.603577,191.799973 45.953346,199.351852 C47.142632,203.174072 49.802307,206.432800 53.318653,207.009308 C49.626125,200.199509 46.893650,193.424515 51.977058,186.307220 C52.820076,185.126907 54.105900,184.128922 54.535465,182.831039 C54.860153,181.850006 54.209080,180.502289 53.805023,179.385529 C53.760307,179.261932 52.485672,179.583344 51.158806,180.277161 zM198.559189,432.848938 C196.184677,429.668945 194.183670,426.620392 192.337662,423.808044 C188.976517,433.751984 188.248566,434.262817 177.328079,434.000000 C172.069199,433.873444 169.772644,431.568909 167.596497,424.043274 C167.004410,424.716431 166.360153,425.202759 166.040924,425.849579 C162.390182,433.246338 158.791641,435.212708 150.676529,433.971191 C147.646881,433.507660 145.908188,432.188568 145.905457,428.489105 C145.893494,412.311157 159.507370,399.257599 175.156174,398.956268 C183.464630,398.796295 191.031845,400.157074 198.001801,405.298492 C204.308624,409.950775 207.130630,416.249756 208.962402,423.339691 C209.477127,425.331970 210.098846,427.556793 209.699005,429.471954 C208.820831,433.678345 205.134354,434.724884 198.559189,432.848938 zM239.154648,433.026001 C233.238785,428.438232 236.800995,423.074982 238.319778,418.735291 C242.387985,407.110779 251.265015,400.462341 263.462494,399.084900 C277.146545,397.539612 288.950958,401.604034 296.122711,413.965515 C298.654297,418.329102 299.026093,424.052032 299.821167,429.240570 C300.014709,430.503632 298.302551,432.810822 296.922913,433.433899 C290.613586,436.283295 283.291046,433.197052 280.400085,426.900665 C279.945343,425.910217 279.257568,425.026733 278.553802,423.894806 C275.809998,432.627960 274.021881,434.012665 265.835480,433.999969 C257.723938,433.987396 256.605194,433.008484 253.593597,423.287964 C247.753372,434.086243 246.065918,435.263672 239.154648,433.026001 zM71.158653,433.001038 C65.133774,431.021088 62.708115,426.992371 62.988743,421.125397 C63.358028,413.404755 62.635345,405.473297 64.164764,397.997162 C68.333549,377.619080 89.892242,371.339569 103.673332,384.652130 C100.591652,385.808228 97.109962,386.441284 94.431160,388.258118 C88.677452,392.160461 87.242256,398.432068 87.037010,404.952087 C86.859016,410.606812 86.818878,416.278778 87.043793,421.930145 C87.355522,429.762512 77.286842,436.193329 71.158653,433.001038 zM371.043396,433.997559 C359.872681,431.120636 358.735596,426.036041 358.909790,417.842224 C359.038513,411.788483 358.727631,405.664642 357.916504,399.666168 C356.754211,391.071472 353.391327,387.921356 344.813507,385.905457 C343.927460,385.697235 343.142334,385.059570 342.405609,384.671356 C348.800842,378.375122 356.476013,376.633667 365.151489,378.639923 C375.632904,381.063843 382.456879,393.635742 382.951630,402.737366 C383.222290,407.716858 382.859131,412.727966 383.030304,417.716309 C383.353760,427.141754 382.580475,431.188965 371.043396,433.997559 zM21.000000,421.684296 C20.666765,414.326447 20.451309,407.423431 19.969395,400.539093 C19.412935,392.589874 15.151500,387.746460 7.605773,385.974274 C6.444440,385.701538 5.352781,385.132141 3.986089,384.606567 C11.429402,378.243958 19.647491,375.440796 28.493835,379.344818 C39.001530,383.981995 44.207710,392.955475 44.934917,404.305359 C45.306351,410.102509 45.069126,415.944122 44.981461,421.763763 C44.884392,428.207550 39.090103,434.031250 32.961464,433.997498 C26.182669,433.960175 21.368074,429.190430 21.000000,421.684296 zM404.692871,391.767395 C410.308105,379.613586 426.119598,371.324341 441.878815,384.439026 C441.195435,384.815247 440.663971,385.207825 440.068359,385.420868 C428.935242,389.403259 425.109680,394.831207 425.006989,406.928772 C424.964569,411.922394 424.998871,416.916687 425.000244,421.910675 C425.002655,430.490601 419.632874,433.037598 413.243927,433.897583 C407.955444,434.609406 401.254944,429.000061 401.139557,423.460419 C400.965027,415.082733 401.523743,406.676910 402.097137,398.305420 C402.242828,396.178497 403.620026,394.135925 404.692871,391.767395 zM388.040497,94.142334 C392.935181,108.124252 384.851105,117.777428 373.915100,117.041428 C365.693695,116.488121 360.564423,110.520348 360.007416,100.297073 C359.953125,99.300171 360.000458,98.297745 359.999908,97.297882 C359.994904,88.257240 356.224640,84.384361 347.063416,83.992928 C346.437500,83.966179 345.815216,83.852905 344.272430,83.672325 C349.323730,77.551323 355.537537,74.608490 362.318329,75.208878 C373.425873,76.192368 382.823975,81.336876 388.040497,94.142334 zM413.317505,77.008080 C424.236786,73.093689 432.987885,75.350746 439.662811,83.789795 C437.829712,83.952675 436.019836,83.859787 434.353882,84.305122 C426.868958,86.306023 423.735870,90.623795 424.097290,99.630089 C424.354553,106.040871 422.922638,111.321342 417.326447,114.889786 C412.474365,117.983749 405.246613,117.669785 400.839844,114.324669 C396.098480,110.725571 393.983459,103.931343 395.357574,98.065796 C397.702118,88.057899 404.057434,81.531563 413.317505,77.008080 zM33.491024,77.178665 C41.955532,81.211807 47.791470,87.046638 50.412918,95.865784 C52.736397,103.682472 49.983814,111.153625 43.874210,115.123390 C38.181519,118.822250 28.634132,116.788582 25.448267,111.782242 C23.712177,109.054123 22.747435,105.675369 22.108536,102.456337 C21.535463,99.568939 22.355167,96.396507 21.733679,93.529015 C20.202757,86.465462 17.251213,84.648964 7.240201,83.691528 C10.407714,76.365288 20.895741,73.662140 33.491024,77.178665 zM100.855698,83.357338 C89.741714,84.352448 85.581642,87.593170 85.943535,101.036858 C86.217415,111.211220 79.817444,117.370003 69.986565,116.999947 C64.364868,116.788330 57.910728,111.129120 57.010517,105.622093 C54.857876,92.453362 65.872452,78.071854 79.305267,75.927513 C87.896721,74.556023 95.228821,76.042068 100.855698,83.357338 zM43.000729,73.209229 C45.999817,64.615845 49.611542,62.463055 57.743816,64.010422 C61.661499,64.755859 65.136162,69.690208 64.999863,74.314705 C64.852730,79.307182 60.566242,84.410835 56.142296,85.011200 C49.009102,85.979218 43.315788,81.645271 43.000729,73.209229 zM384.754883,82.271515 C380.735718,76.736115 380.900208,70.560669 384.880524,66.602943C387.966217,63.534763 395.298340,62.870991 398.860840,65.337334 C402.825745,68.082253 404.207916,73.602127 402.129700,78.391785 C399.078827,85.423111 392.460815,87.037819 384.754883,82.271515 zM238.161316,94.454987 C234.045715,80.939827 235.566422,68.285255 243.144165,57.029251 C250.242645,46.485184 263.366699,38.396622 275.686798,43.296158 C280.112793,45.056320 283.219635,50.118938 286.949707,53.652004 C288.165863,54.803947 289.310547,56.620300 290.722931,56.886677 C308.235779,60.189625 311.754700,79.279549 303.472076,91.854446 C293.864166,106.441406 265.782440,116.247787 248.483643,105.599426 C244.420624,103.098412 241.661942,98.478447 238.161316,94.454987 M251.091553,99.615150 C261.469238,106.022034 270.840637,102.468842 279.873535,96.564705 C283.392883,94.264366 286.638916,86.565880 285.737305,83.365700 C283.871216,76.742142 280.280396,74.112709 274.190735,73.654877 C271.503815,66.121254 264.433350,61.682823 255.258347,68.285660 C244.447662,76.065620 242.743301,92.506638 251.091553,99.615150 zM196.208542,106.321411 C179.303833,113.759903 164.477600,108.990112 150.279877,99.791267 C142.277588,94.606506 139.052109,86.670753 138.114380,77.780769 C137.173035,68.856308 145.006424,59.351543 154.259033,56.940163 C155.958679,56.497208 158.110672,55.499882 158.876068,54.109890 C168.438782,36.743172 184.006348,40.278877 195.448380,49.047424 C208.824020,59.297794 213.044403,78.718216 207.914520,93.545486 C205.971497,99.161560 202.422318,103.823448 196.208542,106.321411 M199.752243,81.228081 C198.844788,79.205261 198.225784,76.980019 196.975250,75.197960 C193.373825,70.065872 189.106415,65.334229 182.356277,65.120110 C176.642883,64.938873 173.584717,69.133766 171.522797,73.892441 C164.536331,73.115685 158.056290,81.543617 161.053345,89.489937 C164.667938,99.073608 180.205490,104.589439 187.386673,102.773758 C192.817245,101.400696 197.992676,98.933739 199.454788,92.885292 C200.287766,89.439476 199.849442,85.686348 199.752243,81.228081 zM251.247375,96.640747 C247.733566,91.429001 246.686127,86.247528 249.669266,80.910355 C252.201218,76.380417 256.279938,74.049965 261.525574,74.010063 C266.745605,73.970360 272.227631,78.097061 273.991791,83.303238 C275.878662,88.871475 274.041626,94.595345 269.176392,98.307068 C264.713837,101.711586 259.112762,101.896790 254.301758,98.798302 C253.355530,98.188896 252.410553,97.577560 251.247375,96.640747 zM171.001099,87.913788 C172.247253,75.487450 184.756760,70.495750 192.520782,76.750801 C198.458725,81.534676 200.309296,89.801239 194.861542,96.180237 C190.052673,101.811096 183.360825,103.259575 176.490585,97.674408 C173.864044,95.539154 172.785767,91.499405 171.001099,87.913788 z" fill="currentColor" transform="translate(-222 -256)"></path></g></g></svg>