<svg viewBox="0 0 230 230"><g transform="translate(0,230) scale(0.1,-0.1)" fill="currentColor"><path d="M1704 2266 c-225 -114 -374 -351 -374 -593 l0 -75 -59 54 c-154 139 -360 207 -544 180 -86 -13 -207 -50 -207 -64 0 -9 199 -500 205 -506 2 -2 42 9 89 24 78 24 97 26 206 22 66 -2 123 -7 126 -11 13 -13 -21 -62 -96 -138 -82 -83 -175 -136 -285 -164 -77 -20 -215 -19 -290 1 -33 9 -66 17 -73 18 -17 1 -60 -99 -78 -183 -31 -148 -10 -302 62 -449 108 -222 327 -366 574 -379 126 -7 218 13 340 73 156 77 278 216 336 383 58 167 54 313 -14 502 -35 99 -37 110 -37 229 0 139 10 183 74 305 49 95 153 198 251 249 41 21 76 40 77 41 3 2 -191 477 -204 500 -8 13 -19 11 -79 -19z m114 -235 c40 -98 75 -187 78 -197 3 -15 -10 -27 -57 -54 -90 -51 -198 -169 -248 -271 -44 -90 -71 -181 -71 -238 0 -22 -4 -31 -9 -26 -20 20 -100 243 -112 309 -39 229 76 489 275 618 33 21 62 38 65 38 3 0 39 -81 79 -179z m-828 -290 c188 -60 324 -195 408 -406 11 -27 27 -67 36 -87 l16 -38 -72 49 c-167 111 -364 148 -543 101 -38 -10 -71 -17 -73 -16 -5 6 -160 391 -158 394 2 1 32 9 67 17 87 20 235 13 319 -14z m347 -532 c27 -18 73 -58 103 -90 56 -57 117 -154 103 -162 -5 -2 -124 -53 -266 -112 -152 -64 -261 -104 -267 -99 -4 5 -28 59 -53 120 l-44 111 36 19 c83 44 198 153 250 238 22 36 23 36 57 21 18 -7 55 -28 81 -46z m-436 -380 c26 -63 45 -117 41 -121 -4 -3 -125 -56 -269 -116 l-263 -110 -11 37 c-17 53 -23 240 -10 300 6 28 17 67 25 86 14 34 15 34 53 22 57 -17 268 -13 323 5 25 9 49 15 54 14 6 -1 31 -54 57 -117z m706 -109 c5 -91 -7 -177 -35 -251 l-10 -26 -64 13 c-35 8 -91 14 -125 14 -56 0 -186 -20 -223 -34 -11 -5 -27 23 -64 114 -27 66 -47 122 -45 124 2 1 123 53 269 113 l265 111 13 -41 c8 -23 16 -85 19 -137z m-624 -92 c43 -104 87 -213 87 -219 0 -4 -24 -21 -52 -37 -76 -43 -161 -123 -210 -197 l-41 -64 -35 15 c-49 20 -153 96 -191 139 -55 63 -105 145 -95 155 11 11 504 219 520 220 7 0 14 -6 17 -12z m535 -242 c15 -9 -32 -80 -95 -143 -52 -53 -152 -118 -163 -106 -5 4 -29 59 -53 120 l-45 113 36 9 c21 5 46 12 57 15 30 7 248 1 263 -8z m-365 -171 c25 -60 44 -111 42 -113 -2 -2 -27 -10 -56 -18 -63 -16 -218 -18 -272 -3 l-38 10 23 32 c70 102 226 233 250 209 3 -4 26 -56 51 -117z"/></g></svg>